<?xml version="1.0" encoding="utf-8"?>
<!-- Generator: Adobe Illustrator 20.0.0, SVG Export Plug-In . SVG Version: 6.00 Build 0)  -->
<svg version="1.1" id="Layer_1" xmlns="http://www.w3.org/2000/svg" xmlns:xlink="http://www.w3.org/1999/xlink" x="0px" y="0px"
	 viewBox="0 0 360 280" style="enable-background:new 0 0 360 280;" xml:space="preserve">
<style type="text/css">
	.st0{fill:#FFFFFF;}
</style>
<g>
	<path class="st0" d="M303.1,65.4c-0.8-0.3-1.3-1.2-1-2.1c0.1-0.2,0.1-0.4,0.2-0.5c0.3-0.8,1.2-1.3,2-1c0.8,0.3,1.3,1.2,1,2
		c-0.1,0.2-0.1,0.4-0.2,0.7c-0.3,0.7-0.9,1.1-1.6,1C303.4,65.5,303.3,65.4,303.1,65.4"/>
	<path class="st0" d="M267.6,60c0-0.2,0-0.5-0.1-0.7c-0.1-0.9,0.6-1.6,1.5-1.7c0.9-0.1,1.6,0.6,1.7,1.5c0,0.2,0,0.4,0.1,0.6
		c0.1,0.9-0.5,1.7-1.4,1.8c-0.1,0-0.2,0-0.3,0C268.3,61.3,267.7,60.8,267.6,60"/>
	<path class="st0" d="M303.1,57c0-0.2,0-0.4,0-0.6c-0.1-0.9,0.6-1.7,1.4-1.7c0.9-0.1,1.7,0.6,1.7,1.4c0,0.2,0,0.5,0.1,0.7
		c0.1,0.9-0.6,1.6-1.5,1.7c-0.1,0-0.2,0-0.2,0C303.8,58.5,303.1,57.8,303.1,57"/>
	<path class="st0" d="M269.3,54.4c-0.9-0.2-1.3-1.1-1.1-2c0.1-0.2,0.1-0.4,0.2-0.7c0.3-0.8,1.2-1.3,2-1c0.8,0.3,1.3,1.2,1,2
		c-0.1,0.2-0.1,0.4-0.2,0.6h0c-0.2,0.7-0.9,1.2-1.7,1.1C269.5,54.4,269.4,54.4,269.3,54.4"/>
	<path class="st0" d="M301.5,50.9c-0.1-0.2-0.2-0.4-0.3-0.5c-0.4-0.8-0.1-1.8,0.7-2.2c0.8-0.4,1.8-0.1,2.2,0.7
		c0.1,0.2,0.2,0.4,0.3,0.6c0.4,0.8,0,1.8-0.7,2.1c-0.3,0.1-0.6,0.2-0.8,0.2C302.3,51.7,301.8,51.4,301.5,50.9"/>
	<path class="st0" d="M272,47.9c-0.7-0.6-0.8-1.6-0.2-2.2c0.2-0.2,0.3-0.4,0.5-0.5c0.6-0.7,1.6-0.7,2.3-0.1c0.7,0.6,0.7,1.6,0.2,2.3
		c-0.1,0.1-0.3,0.3-0.4,0.4c-0.3,0.4-0.9,0.6-1.4,0.6C272.6,48.2,272.3,48.1,272,47.9"/>
	<path class="st0" d="M297.7,45.8c-0.1-0.1-0.3-0.3-0.4-0.4c-0.7-0.6-0.8-1.6-0.2-2.3c0.6-0.7,1.6-0.8,2.3-0.2
		c0.2,0.2,0.4,0.3,0.5,0.5c0.7,0.6,0.7,1.6,0.1,2.3c-0.3,0.4-0.8,0.6-1.3,0.5C298.3,46.2,297.9,46,297.7,45.8"/>
	<path class="st0" d="M277,43c-0.4-0.8-0.1-1.7,0.6-2.2c0.2-0.1,0.4-0.2,0.6-0.3c0.8-0.4,1.8-0.1,2.1,0.7c0.4,0.8,0.1,1.8-0.7,2.1
		c-0.2,0.1-0.3,0.2-0.5,0.3h0c-0.3,0.2-0.6,0.2-0.9,0.2C277.8,43.8,277.3,43.5,277,43"/>
	<path class="st0" d="M292.2,42.6c-0.2-0.1-0.4-0.1-0.6-0.2c-0.8-0.3-1.3-1.2-1.1-2c0.3-0.8,1.2-1.3,2-1.1c0.2,0.1,0.4,0.1,0.7,0.2
		c0.8,0.3,1.3,1.2,1,2c-0.2,0.7-0.9,1.1-1.7,1.1C292.4,42.7,292.3,42.6,292.2,42.6"/>
	<path class="st0" d="M283.5,40.3c-0.1-0.9,0.6-1.7,1.4-1.8c0.2,0,0.5,0,0.7-0.1c0.9-0.1,1.6,0.6,1.7,1.5c0.1,0.9-0.6,1.6-1.5,1.7
		c-0.2,0-0.4,0-0.6,0l0,0c-0.1,0-0.2,0-0.3,0C284.2,41.7,283.6,41.1,283.5,40.3"/>
	<path class="st0" d="M214.4,237.5c-0.2,0-0.5,0-0.7-0.1c-0.9-0.1-1.5-0.9-1.4-1.8c0.1-0.9,0.9-1.5,1.8-1.4c0.2,0,0.4,0,0.6,0.1
		c0.9,0.1,1.5,0.9,1.4,1.8c-0.1,0.8-0.8,1.4-1.6,1.4C214.5,237.5,214.5,237.5,214.4,237.5"/>
	<path class="st0" d="M219.4,235.8c-0.2-0.9,0.3-1.7,1.1-1.9c0.2-0.1,0.4-0.1,0.6-0.2c0.8-0.3,1.7,0.2,2,1.1c0.3,0.9-0.2,1.7-1.1,2
		c-0.2,0.1-0.4,0.1-0.7,0.2c-0.1,0-0.3,0.1-0.4,0.1C220.2,237,219.6,236.5,219.4,235.8"/>
	<path class="st0" d="M208,235.7c-0.2-0.1-0.4-0.2-0.6-0.3c-0.8-0.4-1.1-1.4-0.7-2.1c0.4-0.8,1.4-1.1,2.2-0.7
		c0.2,0.1,0.3,0.2,0.5,0.2c0.8,0.4,1.1,1.3,0.8,2.1c-0.3,0.6-0.8,0.9-1.4,0.9C208.4,235.8,208.2,235.8,208,235.7"/>
	<path class="st0" d="M225.9,233.3c-0.5-0.7-0.4-1.7,0.3-2.2c0.1-0.1,0.3-0.2,0.5-0.4c0.7-0.6,1.7-0.5,2.2,0.2
		c0.6,0.7,0.5,1.7-0.2,2.3c-0.2,0.1-0.4,0.3-0.5,0.4h0c-0.3,0.2-0.6,0.3-1,0.3C226.7,233.9,226.2,233.7,225.9,233.3"/>
	<path class="st0" d="M201.8,231.2c-0.2-0.2-0.3-0.3-0.5-0.5v0c-0.6-0.7-0.5-1.7,0.2-2.3c0.7-0.6,1.7-0.5,2.3,0.2
		c0.1,0.1,0.3,0.3,0.4,0.4c0.6,0.7,0.6,1.7-0.1,2.3c-0.3,0.3-0.7,0.4-1.1,0.4C202.6,231.7,202.1,231.5,201.8,231.2"/>
	<path class="st0" d="M231,228.5c-0.8-0.4-1-1.4-0.6-2.2c0.1-0.2,0.2-0.3,0.3-0.5c0.4-0.8,1.4-1.1,2.2-0.6c0.8,0.4,1.1,1.4,0.6,2.2
		c-0.1,0.2-0.2,0.4-0.3,0.6l0,0c-0.3,0.5-0.8,0.8-1.4,0.8C231.6,228.7,231.3,228.6,231,228.5"/>
	<path class="st0" d="M197.9,224.7c-0.1-0.2-0.2-0.4-0.2-0.6h0c-0.3-0.8,0.2-1.7,1-2c0.8-0.3,1.7,0.2,2,1c0.1,0.2,0.1,0.4,0.2,0.6
		c0.3,0.8-0.1,1.7-0.9,2.1c-0.2,0.1-0.4,0.1-0.6,0.1C198.7,225.7,198.1,225.3,197.9,224.7"/>
	<path class="st0" d="M234,222.1c-0.9-0.1-1.5-0.9-1.4-1.8c0-0.2,0.1-0.4,0.1-0.6c0.1-0.9,0.9-1.5,1.7-1.4c0.9,0.1,1.5,0.9,1.4,1.7
		c0,0.2,0,0.5-0.1,0.7c-0.1,0.8-0.8,1.4-1.6,1.4C234.1,222.1,234,222.1,234,222.1"/>
	<path class="st0" d="M196.4,217.3c0-0.2,0-0.5,0-0.7v0c0-0.9,0.7-1.6,1.6-1.6c0.9,0,1.6,0.7,1.6,1.5c0,0.2,0,0.4,0,0.6
		c0,0.9-0.6,1.6-1.5,1.7H198C197.2,218.8,196.4,218.2,196.4,217.3"/>
	<path class="st0" d="M232,214c-0.1-0.2-0.1-0.4-0.2-0.5c-0.3-0.8,0.1-1.7,0.9-2.1c0.8-0.3,1.8,0.1,2.1,0.9c0.1,0.2,0.2,0.4,0.2,0.7
		c0.3,0.8-0.2,1.7-1,2c-0.2,0.1-0.3,0.1-0.5,0.1C232.8,215.1,232.2,214.7,232,214"/>
	<path class="st0" d="M198.2,211.8c-0.9-0.1-1.5-0.9-1.4-1.8c0-0.2,0-0.4,0.1-0.6c0.1-0.9,0.9-1.5,1.8-1.4c0.9,0.1,1.5,0.9,1.4,1.8
		c0,0.2,0,0.4-0.1,0.6c-0.1,0.8-0.8,1.4-1.6,1.4C198.3,211.8,198.2,211.8,198.2,211.8"/>
	<path class="st0" d="M228.7,208.6c-0.1-0.1-0.3-0.3-0.4-0.4c-0.6-0.6-0.6-1.6,0-2.3c0.6-0.6,1.6-0.6,2.3,0c0.2,0.2,0.3,0.3,0.5,0.5
		v0c0.6,0.7,0.6,1.7-0.1,2.3c-0.3,0.3-0.7,0.4-1.1,0.4C229.5,209.1,229,209,228.7,208.6"/>
	<path class="st0" d="M223.6,204.7c-0.2-0.1-0.3-0.2-0.5-0.3c-0.8-0.4-1.1-1.3-0.7-2.1c0.4-0.8,1.3-1.1,2.1-0.8
		c0.2,0.1,0.4,0.2,0.6,0.3c0.8,0.4,1.1,1.4,0.7,2.2c-0.3,0.5-0.8,0.9-1.4,0.9C224.1,204.9,223.8,204.9,223.6,204.7"/>
	<path class="st0" d="M199.1,204.8c-0.9-0.2-1.4-1.1-1.2-1.9c0.1-0.2,0.1-0.4,0.2-0.6v0c0.2-0.8,1.1-1.4,2-1.2
		c0.8,0.2,1.4,1.1,1.1,1.9c0,0.2-0.1,0.4-0.1,0.6c-0.2,0.7-0.8,1.2-1.6,1.2C199.4,204.9,199.2,204.9,199.1,204.8"/>
	<path class="st0" d="M267.3,201.2c-0.1-0.9,0.5-1.7,1.4-1.8c0.2,0,0.4,0,0.6-0.1c0.9-0.1,1.7,0.5,1.8,1.3c0.1,0.9-0.5,1.7-1.3,1.8
		c-0.2,0-0.4,0.1-0.7,0.1c-0.1,0-0.1,0-0.2,0C268.1,202.6,267.4,202,267.3,201.2"/>
	<path class="st0" d="M262.1,202.2c-0.2-0.1-0.5-0.1-0.7-0.2c-0.8-0.3-1.3-1.1-1.1-2c0.3-0.8,1.1-1.3,2-1.1c0.2,0.1,0.4,0.1,0.6,0.2
		c0.8,0.2,1.4,1.1,1.1,1.9c-0.2,0.7-0.8,1.2-1.5,1.2C262.4,202.3,262.3,202.3,262.1,202.2"/>
	<path class="st0" d="M274.2,199.7c-0.4-0.8-0.1-1.8,0.7-2.2c0.2-0.1,0.3-0.2,0.5-0.3c0.8-0.4,1.7-0.1,2.2,0.6
		c0.4,0.8,0.1,1.7-0.6,2.2c-0.2,0.1-0.4,0.2-0.6,0.3c-0.2,0.1-0.5,0.2-0.7,0.2C275,200.6,274.4,200.3,274.2,199.7"/>
	<path class="st0" d="M255.3,198.9c-0.2-0.1-0.4-0.3-0.5-0.4c-0.7-0.6-0.8-1.6-0.3-2.2c0.6-0.7,1.6-0.8,2.3-0.3
		c0.2,0.1,0.3,0.2,0.5,0.4c0.7,0.5,0.8,1.5,0.3,2.2c-0.3,0.4-0.8,0.6-1.3,0.6C255.9,199.2,255.6,199.1,255.3,198.9"/>
	<path class="st0" d="M201.1,198.1c-0.8-0.3-1.2-1.3-0.9-2.1c0.1-0.2,0.2-0.4,0.3-0.6c0.3-0.8,1.3-1.2,2.1-0.8
		c0.8,0.4,1.2,1.3,0.8,2.1c-0.1,0.2-0.2,0.4-0.2,0.6c-0.3,0.6-0.9,1-1.5,1C201.5,198.2,201.3,198.2,201.1,198.1"/>
	<path class="st0" d="M280,195.9c-0.7-0.6-0.8-1.6-0.2-2.3c0.1-0.1,0.2-0.3,0.4-0.5c0.5-0.7,1.5-0.8,2.2-0.3
		c0.7,0.5,0.8,1.5,0.3,2.2c-0.1,0.2-0.3,0.4-0.4,0.6c-0.3,0.4-0.8,0.6-1.2,0.6C280.7,196.2,280.3,196.1,280,195.9"/>
	<path class="st0" d="M250.1,193.3c-0.1-0.2-0.2-0.4-0.4-0.6c-0.4-0.8-0.2-1.7,0.6-2.2c0.8-0.4,1.7-0.2,2.2,0.6
		c0.1,0.2,0.2,0.3,0.3,0.5c0.5,0.8,0.2,1.7-0.5,2.2c-0.3,0.2-0.6,0.2-0.8,0.2C251,194.1,250.4,193.8,250.1,193.3"/>
	<path class="st0" d="M204.1,191.7c-0.8-0.5-1-1.5-0.5-2.2c0.1-0.2,0.2-0.4,0.3-0.6c0.5-0.7,1.5-1,2.2-0.5c0.7,0.5,1,1.5,0.5,2.2
		c-0.1,0.2-0.2,0.4-0.3,0.5c-0.3,0.5-0.8,0.8-1.4,0.8C204.6,192,204.3,191.9,204.1,191.7"/>
	<path class="st0" d="M283.9,190c-0.8-0.3-1.3-1.1-1.1-2c0.1-0.2,0.1-0.4,0.2-0.6c0.2-0.8,1.1-1.4,1.9-1.1c0.9,0.2,1.4,1.1,1.1,1.9
		c0,0.2-0.1,0.4-0.2,0.7c-0.2,0.7-0.8,1.1-1.5,1.1C284.2,190.1,284,190,283.9,190"/>
	<path class="st0" d="M247.5,186.1c0-0.2-0.1-0.5-0.1-0.7c-0.1-0.9,0.5-1.7,1.4-1.8c0.9-0.1,1.7,0.5,1.7,1.4c0,0.2,0,0.4,0.1,0.6
		c0.1,0.9-0.5,1.7-1.4,1.8c-0.1,0-0.2,0-0.2,0C248.3,187.5,247.6,186.9,247.5,186.1"/>
	<path class="st0" d="M208,185.9c-0.7-0.6-0.8-1.6-0.2-2.3c0.1-0.2,0.3-0.3,0.4-0.5l0,0c0.6-0.7,1.6-0.8,2.3-0.2
		c0.7,0.6,0.8,1.6,0.2,2.2c-0.1,0.2-0.3,0.3-0.4,0.5c-0.3,0.4-0.8,0.6-1.2,0.6C208.6,186.2,208.3,186.1,208,185.9"/>
	<path class="st0" d="M283.4,181.6c0-0.2,0-0.4-0.1-0.6c-0.1-0.9,0.5-1.7,1.4-1.8c0.9-0.1,1.7,0.5,1.8,1.4c0,0.2,0,0.5,0.1,0.7h0
		c0.1,0.9-0.6,1.6-1.5,1.7c0,0-0.1,0-0.1,0C284.2,183.1,283.5,182.5,283.4,181.6"/>
	<path class="st0" d="M212.6,180.6c-0.6-0.6-0.6-1.7,0.1-2.3c0.2-0.1,0.3-0.3,0.5-0.4c0.6-0.6,1.6-0.6,2.3,0.1
		c0.6,0.6,0.6,1.7-0.1,2.3c-0.2,0.1-0.3,0.3-0.5,0.4c-0.3,0.3-0.7,0.4-1.1,0.4C213.4,181.1,213,180.9,212.6,180.6"/>
	<path class="st0" d="M249.2,180.5c-0.9-0.2-1.4-1.1-1.1-1.9c0.1-0.2,0.1-0.4,0.2-0.7l0,0c0.3-0.9,1.1-1.3,2-1.1
		c0.8,0.3,1.3,1.1,1.1,2c-0.1,0.2-0.1,0.4-0.2,0.6c-0.2,0.7-0.8,1.2-1.6,1.2C249.4,180.5,249.3,180.5,249.2,180.5"/>
	<path class="st0" d="M217.9,175.9c-0.5-0.7-0.4-1.7,0.3-2.2c0.2-0.1,0.3-0.3,0.5-0.4h0c0.7-0.5,1.7-0.4,2.2,0.3
		c0.5,0.7,0.4,1.7-0.3,2.2c-0.2,0.1-0.3,0.2-0.5,0.4c-0.3,0.2-0.6,0.3-1,0.3C218.7,176.5,218.2,176.3,217.9,175.9"/>
	<path class="st0" d="M281.6,175.6c-0.1-0.2-0.2-0.3-0.3-0.5c-0.5-0.8-0.2-1.7,0.5-2.2c0.8-0.5,1.7-0.2,2.2,0.5
		c0.1,0.2,0.2,0.4,0.4,0.6v0c0.4,0.8,0.1,1.7-0.6,2.2c-0.2,0.1-0.5,0.2-0.8,0.2C282.5,176.4,281.9,176.1,281.6,175.6"/>
	<path class="st0" d="M223.5,171.7c-0.5-0.7-0.3-1.7,0.5-2.2c0.2-0.1,0.4-0.2,0.5-0.4v0c0.7-0.5,1.7-0.2,2.2,0.5
		c0.5,0.7,0.2,1.7-0.5,2.2c-0.2,0.1-0.4,0.2-0.5,0.3c-0.3,0.2-0.6,0.2-0.9,0.2C224.4,172.5,223.8,172.2,223.5,171.7"/>
	<path class="st0" d="M277.5,170.7c-0.1-0.1-0.3-0.3-0.5-0.4c-0.7-0.6-0.8-1.6-0.3-2.3c0.6-0.7,1.5-0.8,2.2-0.3
		c0.2,0.1,0.3,0.3,0.5,0.4h0c0.7,0.6,0.8,1.6,0.2,2.3c-0.3,0.4-0.8,0.6-1.2,0.6C278.2,171.1,277.8,171,277.5,170.7"/>
	<path class="st0" d="M229.5,168.1c-0.4-0.8-0.1-1.8,0.7-2.1c0.2-0.1,0.4-0.2,0.6-0.3c0.8-0.4,1.8,0,2.1,0.8c0.4,0.8,0,1.8-0.8,2.1
		c-0.2,0.1-0.4,0.2-0.6,0.3c-0.2,0.1-0.5,0.2-0.7,0.2C230.4,169,229.8,168.6,229.5,168.1"/>
	<path class="st0" d="M271.9,167.2c-0.2-0.1-0.4-0.2-0.6-0.2c-0.8-0.4-1.2-1.3-0.8-2.1c0.4-0.8,1.3-1.2,2.1-0.8
		c0.2,0.1,0.4,0.2,0.6,0.3h0c0.8,0.4,1.2,1.3,0.8,2.1c-0.3,0.6-0.9,0.9-1.5,0.9C272.4,167.4,272.1,167.3,271.9,167.2"/>
	<path class="st0" d="M236,165.3c-0.3-0.8,0.2-1.7,1-2c0.2-0.1,0.4-0.1,0.6-0.2h0c0.8-0.3,1.7,0.2,2,1.1c0.3,0.8-0.2,1.7-1.1,2
		c-0.2,0.1-0.4,0.1-0.6,0.2c-0.2,0.1-0.3,0.1-0.5,0.1C236.8,166.4,236.2,165.9,236,165.3"/>
	<path class="st0" d="M265.5,165.1c-0.2-0.1-0.4-0.1-0.6-0.1c-0.9-0.2-1.4-1.1-1.2-1.9c0.2-0.9,1.1-1.4,1.9-1.2
		c0.2,0.1,0.4,0.1,0.6,0.2c0.9,0.2,1.4,1.1,1.2,1.9c-0.2,0.7-0.8,1.2-1.6,1.2C265.8,165.1,265.7,165.1,265.5,165.1"/>
	<path class="st0" d="M242.8,163.3c-0.2-0.9,0.4-1.7,1.3-1.9c0.2,0,0.4-0.1,0.6-0.1v0c0.9-0.1,1.7,0.4,1.8,1.3
		c0.1,0.9-0.4,1.7-1.3,1.8c-0.2,0-0.4,0.1-0.6,0.1c-0.1,0-0.2,0-0.3,0C243.6,164.7,242.9,164.1,242.8,163.3"/>
	<path class="st0" d="M258.8,164c-0.2,0-0.4,0-0.6-0.1c-0.9-0.1-1.5-0.8-1.5-1.7c0.1-0.9,0.8-1.5,1.7-1.5c0.2,0,0.4,0,0.7,0.1v0
		c0.9,0.1,1.5,0.9,1.4,1.7c-0.1,0.8-0.8,1.5-1.6,1.5C258.9,164,258.9,164,258.8,164"/>
	<path class="st0" d="M249.7,162.3c0-0.9,0.6-1.6,1.5-1.7c0.2,0,0.4,0,0.7,0h0c0.9,0,1.6,0.7,1.7,1.5c0,0.9-0.6,1.6-1.5,1.7
		c-0.2,0-0.4,0-0.6,0c0,0-0.1,0-0.1,0C250.5,163.8,249.8,163.2,249.7,162.3"/>
	<path class="st0" d="M186.1,73.8c0-0.9,0.7-1.6,1.6-1.6h0.6c0.9,0,1.6,0.7,1.6,1.6c0,0.9-0.7,1.6-1.6,1.6h-0.6h0
		C186.8,75.4,186.1,74.7,186.1,73.8"/>
	<path class="st0" d="M193.2,73.8c0-0.9,0.7-1.6,1.6-1.6l0.6,0c0.9,0,1.6,0.7,1.6,1.6c0,0.9-0.7,1.6-1.6,1.6h-0.6h0
		C193.9,75.4,193.2,74.7,193.2,73.8"/>
	<path class="st0" d="M200.2,73.7c0-0.9,0.7-1.6,1.6-1.6l0.6,0c0.9,0,1.6,0.7,1.6,1.6c0,0.9-0.7,1.6-1.6,1.6l-0.6,0h0
		C200.9,75.3,200.2,74.6,200.2,73.7"/>
	<path class="st0" d="M338.5,93.7c-0.1-0.9,0.5-1.7,1.3-1.8c0.2,0,0.4-0.1,0.6-0.1c0.9-0.2,1.7,0.4,1.9,1.3c0.2,0.9-0.4,1.7-1.3,1.9
		c-0.2,0-0.5,0.1-0.7,0.1c-0.1,0-0.2,0-0.2,0C339.3,95.1,338.6,94.5,338.5,93.7"/>
	<path class="st0" d="M333.4,94.9c-0.2,0-0.5-0.1-0.7-0.1c-0.9-0.2-1.4-1.1-1.2-1.9c0.2-0.8,1.1-1.4,1.9-1.2c0.2,0,0.4,0.1,0.6,0.1
		c0.9,0.2,1.4,1,1.2,1.9c-0.2,0.8-0.8,1.3-1.6,1.3C333.6,94.9,333.5,94.9,333.4,94.9"/>
	<path class="st0" d="M192.3,94.5c-0.2-0.1-0.4-0.3-0.6-0.4c-0.7-0.5-0.9-1.5-0.3-2.2c0.5-0.7,1.5-0.9,2.2-0.3
		c0.2,0.1,0.3,0.2,0.5,0.3c0.7,0.5,0.9,1.5,0.4,2.2c-0.3,0.4-0.8,0.7-1.3,0.7C192.9,94.8,192.6,94.7,192.3,94.5"/>
	<path class="st0" d="M345.3,91.9c-0.5-0.8-0.2-1.7,0.5-2.2c0.2-0.1,0.3-0.2,0.5-0.3c0.7-0.5,1.7-0.3,2.2,0.4
		c0.5,0.7,0.3,1.7-0.4,2.2c-0.2,0.1-0.4,0.3-0.6,0.4c-0.3,0.2-0.6,0.2-0.8,0.2C346.1,92.7,345.6,92.4,345.3,91.9"/>
	<path class="st0" d="M326.4,91.9c-0.2-0.1-0.4-0.3-0.6-0.4c-0.7-0.5-0.9-1.5-0.3-2.2c0.5-0.7,1.5-0.9,2.2-0.3
		c0.2,0.1,0.3,0.2,0.5,0.3c0.7,0.5,0.9,1.5,0.4,2.2c-0.3,0.5-0.8,0.7-1.3,0.7C327,92.2,326.7,92.1,326.4,91.9"/>
	<path class="st0" d="M186.9,89.3c-0.1-0.2-0.3-0.4-0.4-0.5c-0.5-0.7-0.4-1.7,0.3-2.2c0.7-0.5,1.7-0.4,2.2,0.3
		c0.1,0.2,0.2,0.3,0.4,0.5c0.6,0.7,0.4,1.7-0.3,2.3c-0.3,0.2-0.6,0.3-1,0.3C187.7,89.9,187.2,89.7,186.9,89.3"/>
	<path class="st0" d="M350.8,87.6c-0.7-0.5-0.9-1.5-0.3-2.2c0.1-0.2,0.2-0.3,0.3-0.5c0.5-0.7,1.5-0.9,2.2-0.4
		c0.7,0.5,0.9,1.5,0.4,2.2c-0.1,0.2-0.3,0.4-0.4,0.6c-0.3,0.4-0.8,0.7-1.3,0.7C351.4,87.9,351.1,87.8,350.8,87.6"/>
	<path class="st0" d="M321.1,86.4c-0.1-0.2-0.2-0.4-0.4-0.6c-0.5-0.8-0.2-1.7,0.6-2.2c0.8-0.5,1.7-0.2,2.2,0.6
		c0.1,0.2,0.2,0.3,0.3,0.5c0.5,0.7,0.3,1.7-0.5,2.2c-0.3,0.2-0.6,0.3-0.9,0.3C321.9,87.2,321.4,86.9,321.1,86.4"/>
	<path class="st0" d="M183.1,83c-0.1-0.2-0.2-0.4-0.3-0.6c-0.3-0.8,0-1.8,0.9-2.1c0.8-0.3,1.8,0.1,2.1,0.9c0.1,0.2,0.2,0.4,0.2,0.6
		v0c0.4,0.8,0,1.7-0.8,2.1c-0.2,0.1-0.4,0.1-0.6,0.1C183.9,83.9,183.3,83.6,183.1,83"/>
	<path class="st0" d="M275.9,80.9c-0.1-0.9,0.6-1.6,1.5-1.7c0.2,0,0.4,0,0.6,0c0.9-0.1,1.7,0.6,1.7,1.5c0.1,0.9-0.6,1.7-1.5,1.7
		c-0.2,0-0.4,0-0.7,0c0,0-0.1,0-0.1,0C276.6,82.4,275.9,81.7,275.9,80.9"/>
	<path class="st0" d="M270.9,82.3c-0.2,0-0.4,0-0.7-0.1c-0.9-0.1-1.5-0.9-1.4-1.8c0.1-0.9,0.9-1.5,1.7-1.4c0.2,0,0.4,0,0.6,0.1
		c0.9,0.1,1.5,0.8,1.5,1.7c-0.1,0.8-0.8,1.5-1.6,1.5C271,82.3,271,82.3,270.9,82.3"/>
	<path class="st0" d="M354.3,81.5c-0.9-0.2-1.4-1.1-1.2-1.9c0.1-0.2,0.1-0.4,0.1-0.6c0.2-0.9,1-1.4,1.9-1.2c0.9,0.2,1.4,1,1.3,1.9
		c0,0.2-0.1,0.5-0.2,0.7c-0.2,0.7-0.8,1.2-1.6,1.2C354.6,81.6,354.5,81.6,354.3,81.5"/>
	<path class="st0" d="M282.9,80.1c-0.2-0.9,0.4-1.7,1.2-1.9c0.2-0.1,0.4-0.1,0.6-0.1c0.9-0.2,1.7,0.3,1.9,1.2
		c0.2,0.9-0.3,1.7-1.2,1.9c-0.2,0-0.4,0.1-0.6,0.1c-0.1,0-0.2,0-0.3,0C283.7,81.4,283,80.9,282.9,80.1"/>
	<path class="st0" d="M263.8,81.1c-0.2-0.1-0.4-0.1-0.6-0.2l0,0c-0.9-0.2-1.4-1.1-1.1-2c0.2-0.9,1.1-1.4,2-1.1
		c0.2,0.1,0.4,0.1,0.6,0.2c0.9,0.2,1.4,1.1,1.2,1.9c-0.2,0.7-0.8,1.2-1.5,1.2C264,81.2,263.9,81.1,263.8,81.1"/>
	<path class="st0" d="M289.7,78.4c-0.3-0.8,0.1-1.7,1-2c0.2-0.1,0.4-0.1,0.6-0.2c0.8-0.3,1.7,0.1,2,1c0.3,0.8-0.1,1.7-0.9,2.1
		c-0.2,0.1-0.4,0.1-0.6,0.2c-0.2,0.1-0.4,0.1-0.5,0.1C290.5,79.5,289.9,79.1,289.7,78.4"/>
	<path class="st0" d="M256.9,78.8c-0.2-0.1-0.4-0.2-0.6-0.3h0c-0.8-0.4-1.2-1.3-0.8-2.1c0.4-0.8,1.3-1.2,2.1-0.8
		c0.2,0.1,0.4,0.2,0.6,0.2c0.8,0.3,1.2,1.3,0.9,2.1c-0.3,0.6-0.8,1-1.5,1C257.3,78.9,257.1,78.9,256.9,78.8"/>
	<path class="st0" d="M181,75.8c0-0.2-0.1-0.5-0.1-0.7c-0.1-0.9,0.5-1.7,1.4-1.8c0.9-0.1,1.7,0.5,1.8,1.4c0,0.2,0.1,0.4,0.1,0.6
		c0.1,0.9-0.5,1.7-1.3,1.8c-0.1,0-0.2,0-0.2,0C181.8,77.2,181.1,76.6,181,75.8"/>
	<path class="st0" d="M296.2,75.9c-0.4-0.8,0-1.8,0.8-2.1c0,0,0.1,0,0.1,0l0.2-0.1c0.7-0.5,1.7-0.4,2.2,0.3c0.5,0.7,0.4,1.7-0.3,2.2
		l-0.3,0.2l-0.3,0.2c-0.1,0-0.2,0.1-0.2,0.1c-0.2,0.1-0.5,0.2-0.7,0.2C297.1,76.8,296.5,76.5,296.2,75.9"/>
	<path class="st0" d="M250.4,75.6c-0.2-0.1-0.4-0.2-0.6-0.3c-0.8-0.4-1-1.4-0.6-2.2c0.4-0.8,1.4-1,2.2-0.6c0.2,0.1,0.4,0.2,0.5,0.3
		c0.8,0.4,1,1.4,0.6,2.2c-0.3,0.5-0.8,0.8-1.4,0.8C250.9,75.8,250.6,75.8,250.4,75.6"/>
	<path class="st0" d="M353.4,73.2c0-0.2-0.1-0.4-0.1-0.6h0c-0.2-0.9,0.4-1.7,1.3-1.9c0.9-0.2,1.7,0.4,1.9,1.2c0,0.2,0.1,0.5,0.1,0.7
		c0.1,0.9-0.5,1.7-1.3,1.8c-0.1,0-0.2,0-0.3,0C354.2,74.6,353.5,74,353.4,73.2"/>
	<path class="st0" d="M302.1,72c-0.6-0.7-0.5-1.7,0.2-2.3c0.2-0.1,0.3-0.3,0.5-0.4c0.7-0.6,1.7-0.5,2.3,0.2c0.6,0.7,0.5,1.7-0.2,2.3
		c-0.2,0.1-0.3,0.3-0.5,0.4c-0.3,0.3-0.7,0.4-1,0.4C302.8,72.6,302.4,72.4,302.1,72"/>
	<path class="st0" d="M244.3,71.9c-0.2-0.1-0.4-0.2-0.5-0.4c-0.7-0.5-0.9-1.5-0.4-2.2c0.5-0.7,1.5-0.9,2.2-0.5
		c0.2,0.1,0.3,0.2,0.5,0.4c0.7,0.5,0.9,1.5,0.5,2.2c-0.3,0.5-0.8,0.7-1.3,0.7C244.9,72.2,244.6,72.1,244.3,71.9"/>
	<path class="st0" d="M182.3,70.1c-0.9-0.1-1.5-1-1.3-1.8c0-0.2,0.1-0.4,0.1-0.7c0.2-0.9,1-1.4,1.9-1.3c0.9,0.2,1.4,1,1.3,1.9
		c0,0.2-0.1,0.4-0.1,0.6c-0.1,0.8-0.8,1.3-1.6,1.3C182.5,70.2,182.4,70.2,182.3,70.1"/>
	<path class="st0" d="M307.6,67.6c-0.5-0.7-0.4-1.7,0.4-2.2c0.2-0.1,0.4-0.3,0.5-0.4c0.7-0.5,1.7-0.3,2.2,0.4
		c0.5,0.7,0.3,1.7-0.4,2.2c-0.2,0.1-0.3,0.2-0.5,0.4l0,0c-0.3,0.2-0.6,0.3-0.9,0.3C308.4,68.3,307.9,68,307.6,67.6"/>
	<path class="st0" d="M238.4,67.9c-0.2-0.1-0.3-0.2-0.5-0.4v0c-0.7-0.5-0.9-1.5-0.4-2.2c0.5-0.7,1.5-0.9,2.2-0.4
		c0.2,0.1,0.3,0.2,0.5,0.4c0.7,0.5,0.9,1.5,0.4,2.2c-0.3,0.4-0.8,0.7-1.3,0.7C239,68.2,238.7,68.1,238.4,67.9"/>
	<path class="st0" d="M351.2,67.2c-0.1-0.2-0.2-0.3-0.3-0.5c-0.5-0.8-0.2-1.7,0.5-2.2c0.8-0.5,1.7-0.2,2.2,0.5
		c0.1,0.2,0.2,0.4,0.3,0.6c0.4,0.8,0.2,1.7-0.6,2.2c-0.3,0.1-0.5,0.2-0.8,0.2C352,68,351.5,67.7,351.2,67.2"/>
	<path class="st0" d="M313.4,63.6c-0.5-0.8-0.2-1.7,0.6-2.2c0.2-0.1,0.4-0.2,0.6-0.3c0.8-0.4,1.7-0.2,2.2,0.6
		c0.4,0.8,0.2,1.7-0.6,2.2c-0.2,0.1-0.4,0.2-0.5,0.3c-0.3,0.1-0.5,0.2-0.8,0.2C314.2,64.4,313.6,64.1,313.4,63.6"/>
	<path class="st0" d="M232.7,63.8c-0.2-0.1-0.3-0.2-0.5-0.4c-0.7-0.5-0.9-1.5-0.4-2.2c0.5-0.7,1.5-0.9,2.2-0.4
		c0.2,0.1,0.3,0.2,0.5,0.4c0.7,0.5,0.9,1.5,0.4,2.2c-0.3,0.4-0.8,0.7-1.3,0.7C233.3,64.1,233,64,232.7,63.8"/>
	<path class="st0" d="M184.1,63.4c-0.8-0.4-1.1-1.4-0.7-2.2c0.1-0.2,0.2-0.4,0.3-0.6c0.4-0.8,1.4-1,2.2-0.6c0.8,0.4,1,1.4,0.6,2.2
		c-0.1,0.2-0.2,0.4-0.3,0.5c-0.3,0.5-0.8,0.9-1.4,0.9C184.6,63.5,184.3,63.5,184.1,63.4"/>
	<path class="st0" d="M347.1,62.1c-0.1-0.1-0.3-0.3-0.4-0.4h0c-0.7-0.6-0.8-1.6-0.2-2.2c0.6-0.7,1.6-0.8,2.3-0.2
		c0.2,0.1,0.3,0.3,0.5,0.5c0.7,0.6,0.7,1.6,0.1,2.3c-0.3,0.4-0.8,0.5-1.2,0.5C347.8,62.5,347.4,62.4,347.1,62.1"/>
	<path class="st0" d="M319.5,60.2c-0.4-0.8,0-1.8,0.8-2.1c0.2-0.1,0.4-0.2,0.6-0.2c0.8-0.3,1.8,0,2.1,0.9c0.3,0.8-0.1,1.8-0.9,2.1
		c-0.2,0.1-0.4,0.2-0.6,0.2h0c-0.2,0.1-0.4,0.1-0.6,0.1C320.4,61.2,319.8,60.8,319.5,60.2"/>
	<path class="st0" d="M227,59.9c-0.2-0.1-0.4-0.2-0.5-0.3c-0.8-0.5-1-1.5-0.5-2.2c0.5-0.7,1.5-1,2.2-0.5c0.2,0.1,0.4,0.2,0.5,0.3
		c0.7,0.5,0.9,1.5,0.5,2.2c-0.3,0.5-0.8,0.7-1.3,0.7C227.5,60.1,227.2,60,227,59.9"/>
	<path class="st0" d="M326.1,57.7c-0.2-0.9,0.3-1.7,1.2-1.9c0.2-0.1,0.4-0.1,0.6-0.1c0.9-0.2,1.7,0.4,1.9,1.2
		c0.2,0.9-0.4,1.7-1.2,1.9c-0.2,0-0.4,0.1-0.6,0.1c-0.1,0-0.3,0-0.4,0C326.9,59,326.3,58.5,326.1,57.7"/>
	<path class="st0" d="M341.7,58.8c-0.2-0.1-0.4-0.1-0.5-0.2c-0.8-0.3-1.3-1.2-1-2c0.3-0.8,1.2-1.3,2-1c0.2,0.1,0.4,0.1,0.7,0.2
		c0.8,0.3,1.3,1.2,1,2c-0.2,0.7-0.9,1.1-1.5,1.1C342,58.9,341.8,58.9,341.7,58.8"/>
	<path class="st0" d="M333,56.5c0-0.9,0.7-1.6,1.5-1.6c0.2,0,0.4,0,0.6,0c0.9,0,1.6,0.7,1.6,1.6c0,0.9-0.7,1.6-1.6,1.6
		c-0.2,0-0.4,0-0.6,0h0C333.8,58.1,333.1,57.4,333,56.5"/>
	<path class="st0" d="M187.9,57.4c-0.6-0.6-0.6-1.6,0-2.3c0.2-0.2,0.3-0.3,0.5-0.5c0.7-0.6,1.7-0.6,2.3,0.1c0.6,0.6,0.6,1.7-0.1,2.3
		c-0.1,0.1-0.3,0.3-0.4,0.4c-0.3,0.3-0.7,0.4-1.1,0.4C188.6,57.9,188.2,57.8,187.9,57.4"/>
	<path class="st0" d="M221,56.3c-0.2-0.1-0.4-0.2-0.5-0.3c-0.8-0.4-1.1-1.4-0.7-2.1c0.4-0.8,1.4-1.1,2.2-0.7
		c0.2,0.1,0.4,0.2,0.6,0.3c0.8,0.4,1.1,1.4,0.7,2.2c-0.3,0.5-0.8,0.9-1.4,0.9C221.5,56.5,221.3,56.5,221,56.3"/>
	<path class="st0" d="M193.3,53c-0.4-0.8-0.1-1.8,0.7-2.1c0.2-0.1,0.4-0.2,0.6-0.3c0.8-0.4,1.7,0,2.1,0.8c0.4,0.8,0,1.7-0.8,2.1
		c-0.2,0.1-0.4,0.2-0.5,0.2c-0.2,0.1-0.5,0.2-0.7,0.2C194.2,53.9,193.6,53.6,193.3,53"/>
	<path class="st0" d="M214.8,53.6c-0.2-0.1-0.4-0.1-0.6-0.2c-0.8-0.3-1.3-1.2-1-2c0.3-0.8,1.2-1.3,2-1c0.2,0.1,0.4,0.1,0.6,0.2
		c0.8,0.3,1.3,1.2,1,2c-0.2,0.7-0.9,1.1-1.5,1.1C215.2,53.7,215,53.6,214.8,53.6"/>
	<path class="st0" d="M208.3,52c-0.2,0-0.4-0.1-0.6-0.1c-0.9-0.1-1.5-0.9-1.4-1.8c0.1-0.9,0.9-1.5,1.8-1.4c0.2,0,0.4,0.1,0.7,0.1
		c0.9,0.1,1.5,0.9,1.4,1.8c-0.1,0.8-0.8,1.4-1.6,1.4C208.5,52,208.4,52,208.3,52"/>
	<path class="st0" d="M199.9,50.5c-0.1-0.9,0.5-1.7,1.4-1.8c0.2,0,0.4-0.1,0.7-0.1c0.9-0.1,1.7,0.5,1.8,1.4c0.1,0.9-0.5,1.7-1.4,1.8
		c-0.2,0-0.4,0-0.6,0.1c-0.1,0-0.1,0-0.2,0C200.7,51.9,200,51.3,199.9,50.5"/>
	<path class="st0" d="M179.4,53.2c-0.1-0.9,0.5-1.7,1.4-1.8c0.2,0,0.4-0.1,0.6-0.1c0.9-0.2,1.7,0.4,1.9,1.3c0.2,0.9-0.4,1.7-1.3,1.9
		c-0.2,0-0.5,0.1-0.7,0.1c-0.1,0-0.1,0-0.2,0C180.2,54.6,179.5,54,179.4,53.2"/>
	<path class="st0" d="M174.2,54.1c-0.2-0.1-0.5-0.1-0.7-0.2c-0.8-0.3-1.3-1.2-1-2c0.3-0.8,1.2-1.3,2-1c0.2,0.1,0.4,0.1,0.6,0.2
		c0.9,0.2,1.3,1.1,1.1,2c-0.2,0.7-0.8,1.2-1.5,1.2C174.5,54.2,174.4,54.1,174.2,54.1"/>
	<path class="st0" d="M186.2,51.4c-0.5-0.7-0.3-1.7,0.4-2.2c0.2-0.1,0.3-0.2,0.5-0.3c0.7-0.5,1.7-0.4,2.2,0.4
		c0.5,0.7,0.4,1.7-0.4,2.2c-0.2,0.1-0.4,0.3-0.6,0.4c-0.3,0.2-0.6,0.3-0.9,0.3C187,52.2,186.5,51.9,186.2,51.4"/>
	<path class="st0" d="M167.5,50.4c-0.2-0.2-0.3-0.3-0.5-0.5c-0.6-0.6-0.6-1.6,0-2.3c0.6-0.6,1.6-0.6,2.3,0c0.1,0.1,0.3,0.3,0.4,0.4
		h0c0.7,0.6,0.7,1.6,0.1,2.3c-0.3,0.3-0.8,0.5-1.2,0.5C168.2,50.8,167.8,50.6,167.5,50.4"/>
	<path class="st0" d="M191.5,46.9c-0.8-0.4-1-1.4-0.6-2.2c0.1-0.2,0.2-0.3,0.3-0.5c0.4-0.8,1.4-1.1,2.2-0.7c0.8,0.4,1.1,1.4,0.7,2.2
		c-0.1,0.2-0.2,0.4-0.3,0.6c-0.3,0.5-0.8,0.8-1.4,0.8C192,47.1,191.7,47,191.5,46.9"/>
	<path class="st0" d="M163.1,44.1c-0.1-0.2-0.2-0.4-0.3-0.7c-0.3-0.8,0.1-1.7,1-2c0.8-0.3,1.8,0.1,2.1,1c0.1,0.2,0.1,0.4,0.2,0.5
		c0.3,0.8-0.1,1.7-0.9,2.1c-0.2,0.1-0.4,0.1-0.6,0.1C163.9,45.1,163.3,44.7,163.1,44.1"/>
	<path class="st0" d="M194.3,40.4c-0.9-0.1-1.5-0.8-1.5-1.7c0-0.2,0-0.4,0-0.6c0-0.9,0.8-1.6,1.7-1.5c0.9,0,1.6,0.8,1.5,1.7
		c0,0.2,0,0.5,0,0.7c-0.1,0.8-0.8,1.5-1.6,1.5H194.3z"/>
	<path class="st0" d="M161.8,37.7c0-0.2,0-0.5,0-0.7c0-0.9,0.8-1.6,1.7-1.5c0.9,0,1.6,0.8,1.5,1.7c0,0.2,0,0.4,0,0.6h0
		c0,0.9-0.7,1.6-1.6,1.6C162.5,39.3,161.8,38.5,161.8,37.7"/>
	<path class="st0" d="M191.9,32.5c-0.1-0.2-0.2-0.4-0.2-0.5c-0.4-0.8,0-1.8,0.8-2.1c0.8-0.4,1.8,0,2.1,0.8c0.1,0.2,0.2,0.4,0.3,0.6
		c0.3,0.8-0.1,1.8-0.9,2.1c-0.2,0.1-0.4,0.1-0.6,0.1C192.7,33.5,192.1,33.2,191.9,32.5"/>
	<path class="st0" d="M164.3,32.3c-0.8-0.4-1.1-1.3-0.7-2.1c0.1-0.2,0.2-0.4,0.3-0.6c0.4-0.8,1.4-1.1,2.2-0.6
		c0.8,0.4,1.1,1.4,0.6,2.2c-0.1,0.2-0.2,0.3-0.3,0.5c-0.3,0.6-0.8,0.9-1.4,0.9C164.8,32.5,164.5,32.4,164.3,32.3"/>
	<path class="st0" d="M188.3,27.4c-0.1-0.1-0.3-0.2-0.4-0.4v0c-0.7-0.6-0.8-1.6-0.2-2.3c0.6-0.7,1.6-0.8,2.3-0.2
		c0.2,0.2,0.4,0.3,0.5,0.5c0.7,0.6,0.7,1.6,0.1,2.3c-0.3,0.3-0.7,0.5-1.2,0.5C189,27.8,188.6,27.7,188.3,27.4"/>
	<path class="st0" d="M168.1,26.4c-0.5-0.7-0.4-1.7,0.3-2.2c0.2-0.1,0.4-0.3,0.6-0.4c0.7-0.5,1.7-0.4,2.2,0.4
		c0.5,0.7,0.3,1.7-0.4,2.2c-0.2,0.1-0.3,0.2-0.5,0.3c-0.3,0.2-0.6,0.3-1,0.3C168.9,27,168.4,26.8,168.1,26.4"/>
	<path class="st0" d="M182.8,24.3c-0.2-0.1-0.4-0.1-0.6-0.2c-0.9-0.2-1.4-1.1-1.2-1.9c0.2-0.9,1.1-1.4,1.9-1.2
		c0.2,0.1,0.5,0.1,0.7,0.2c0.8,0.2,1.3,1.1,1.1,2c-0.2,0.7-0.8,1.1-1.5,1.1C183.1,24.4,183,24.4,182.8,24.3"/>
	<path class="st0" d="M174.1,22.8c-0.2-0.9,0.4-1.7,1.2-1.9c0.2-0.1,0.5-0.1,0.7-0.1c0.9-0.1,1.7,0.4,1.8,1.3
		c0.1,0.9-0.4,1.7-1.3,1.8c-0.2,0-0.4,0.1-0.6,0.1c-0.1,0-0.2,0-0.3,0C175,24.1,174.3,23.6,174.1,22.8"/>
	<path class="st0" d="M129.7,111c0-0.2,0-0.4,0-0.6c0-0.8,0.7-1.5,1.5-1.5c0.8,0,1.5,0.7,1.5,1.5v0.6h0c0,0.8-0.7,1.5-1.5,1.5
		C130.4,112.5,129.7,111.8,129.7,111"/>
	<path class="st0" d="M129.1,104.7c0-0.2-0.1-0.4-0.1-0.6c-0.2-0.8,0.3-1.6,1.2-1.8c0.8-0.2,1.6,0.3,1.8,1.2
		c0.1,0.2,0.1,0.4,0.1,0.6c0.2,0.8-0.4,1.6-1.2,1.8c-0.1,0-0.2,0-0.3,0C129.9,105.9,129.3,105.4,129.1,104.7"/>
	<path class="st0" d="M127.2,98.7c-0.1-0.2-0.2-0.3-0.2-0.5c-0.4-0.8-0.1-1.7,0.7-2c0.7-0.4,1.7-0.1,2,0.7c0.1,0.2,0.2,0.4,0.3,0.6
		c0.3,0.7,0,1.7-0.7,2c-0.2,0.1-0.4,0.1-0.6,0.1C128,99.6,127.5,99.3,127.2,98.7"/>
	<path class="st0" d="M123.8,93.5c-0.1-0.1-0.3-0.3-0.4-0.4c-0.6-0.6-0.5-1.6,0.1-2.1c0.6-0.6,1.6-0.5,2.1,0.1
		c0.1,0.2,0.3,0.3,0.4,0.5c0.6,0.6,0.5,1.6-0.1,2.1c-0.3,0.3-0.6,0.4-1,0.4C124.5,94,124.1,93.9,123.8,93.5"/>
	<path class="st0" d="M119.1,89.5c-0.2-0.1-0.3-0.2-0.5-0.3c-0.7-0.4-0.9-1.4-0.5-2.1c0.4-0.7,1.4-0.9,2.1-0.5
		c0.2,0.1,0.4,0.2,0.5,0.3l0,0c0.7,0.5,0.9,1.4,0.4,2.1c-0.3,0.4-0.8,0.7-1.3,0.7C119.6,89.7,119.3,89.6,119.1,89.5"/>
	<path class="st0" d="M113.4,86.7c-0.2-0.1-0.4-0.1-0.5-0.2c-0.8-0.3-1.2-1.2-0.9-1.9c0.3-0.8,1.1-1.2,1.9-0.9
		c0.2,0.1,0.4,0.1,0.6,0.2l0,0c0.8,0.3,1.2,1.2,0.9,1.9c-0.2,0.6-0.8,1-1.4,1C113.8,86.7,113.6,86.7,113.4,86.7"/>
	<path class="st0" d="M107.2,85c-0.2,0-0.4-0.1-0.6-0.1c-0.8-0.1-1.4-0.9-1.2-1.7c0.1-0.8,0.9-1.4,1.8-1.2c0.2,0,0.4,0.1,0.6,0.1v0
		c0.8,0.2,1.4,1,1.2,1.8c-0.1,0.7-0.8,1.2-1.5,1.2C107.4,85,107.3,85,107.2,85"/>
	<path class="st0" d="M100.8,84.2c-0.2,0-0.4,0-0.6,0c-0.8,0-1.5-0.7-1.5-1.5c0-0.8,0.7-1.5,1.6-1.5c0.2,0,0.4,0,0.6,0
		c0.8,0,1.5,0.7,1.5,1.6C102.4,83.6,101.7,84.2,100.8,84.2L100.8,84.2z"/>
	<path class="st0" d="M158.1,31.9c-0.1-0.2-0.2-0.4-0.3-0.6h0c-0.4-0.8-0.1-1.8,0.7-2.2c0.8-0.4,1.7-0.1,2.2,0.7
		c0.1,0.2,0.2,0.4,0.3,0.6c0.4,0.8,0.1,1.8-0.7,2.2c-0.2,0.1-0.5,0.2-0.7,0.2C158.9,32.8,158.4,32.5,158.1,31.9"/>
	<path class="st0" d="M154.7,25.9c-0.1-0.2-0.2-0.3-0.3-0.5c-0.5-0.7-0.3-1.7,0.5-2.2c0.7-0.5,1.7-0.3,2.2,0.5
		c0.1,0.2,0.2,0.4,0.4,0.6c0.5,0.7,0.2,1.7-0.5,2.2c-0.3,0.2-0.6,0.2-0.9,0.2C155.5,26.7,155,26.4,154.7,25.9"/>
	<path class="st0" d="M150.7,20.4c-0.1-0.2-0.3-0.3-0.4-0.5v0c-0.6-0.7-0.5-1.7,0.2-2.3c0.7-0.6,1.7-0.5,2.2,0.2
		c0.1,0.2,0.3,0.3,0.4,0.5c0.6,0.7,0.4,1.7-0.2,2.3c-0.3,0.2-0.7,0.3-1,0.3C151.5,21,151,20.8,150.7,20.4"/>
	<path class="st0" d="M146.1,15.3c-0.2-0.1-0.3-0.3-0.4-0.4v0c-0.7-0.6-0.7-1.6-0.1-2.3c0.6-0.7,1.6-0.7,2.3-0.1
		c0.2,0.2,0.3,0.3,0.5,0.5c0.6,0.6,0.7,1.6,0,2.3c-0.3,0.3-0.7,0.5-1.2,0.5C146.8,15.8,146.4,15.6,146.1,15.3"/>
	<path class="st0" d="M114.4,12.2c-0.6-0.6-0.7-1.6,0-2.3c0.2-0.2,0.3-0.3,0.5-0.5c0.6-0.6,1.6-0.6,2.3,0c0.6,0.6,0.6,1.6,0,2.3
		c-0.1,0.1-0.3,0.3-0.4,0.4l0,0c-0.3,0.3-0.7,0.5-1.1,0.5C115.1,12.7,114.7,12.5,114.4,12.2"/>
	<path class="st0" d="M140.9,11c-0.2-0.1-0.3-0.2-0.5-0.3c-0.7-0.5-1-1.5-0.5-2.2c0.5-0.7,1.5-1,2.2-0.5c0.2,0.1,0.4,0.2,0.6,0.4
		c0.7,0.5,0.9,1.5,0.4,2.2c-0.3,0.5-0.8,0.7-1.3,0.7C141.5,11.3,141.2,11.2,140.9,11"/>
	<path class="st0" d="M119.8,7.6c-0.4-0.8,0-1.7,0.8-2.1c0.2-0.1,0.4-0.2,0.6-0.3c0.8-0.3,1.8,0,2.1,0.8c0.4,0.8,0,1.7-0.8,2.1
		c-0.2,0.1-0.3,0.2-0.5,0.2v0c-0.2,0.1-0.5,0.2-0.7,0.2C120.6,8.6,120,8.2,119.8,7.6"/>
	<path class="st0" d="M135,8.1c-0.2-0.1-0.4-0.1-0.6-0.2c-0.8-0.3-1.3-1.2-1-2c0.3-0.8,1.2-1.3,2-1c0.2,0.1,0.4,0.1,0.6,0.2
		c0.8,0.3,1.3,1.2,1,2c-0.2,0.7-0.9,1.1-1.5,1.1C135.3,8.2,135.2,8.1,135,8.1"/>
	<path class="st0" d="M126.4,5.4c0-0.9,0.7-1.6,1.5-1.7c0.2,0,0.5,0,0.7,0h0c0.9,0,1.6,0.7,1.6,1.6c0,0.9-0.7,1.6-1.6,1.6h0
		c-0.2,0-0.4,0-0.6,0H128C127.1,6.9,126.4,6.2,126.4,5.4"/>
	<path class="st0" d="M126.7,40.8c-0.1-0.9,0.6-1.6,1.5-1.7c0.2,0,0.4,0,0.6-0.1c0.9-0.1,1.7,0.5,1.8,1.4c0.1,0.9-0.5,1.7-1.4,1.8
		c-0.2,0-0.5,0-0.7,0.1c0,0-0.1,0-0.1,0C127.4,42.3,126.7,41.7,126.7,40.8"/>
	<path class="st0" d="M121.4,41.4c-0.2-0.1-0.4-0.2-0.7-0.2c-0.8-0.3-1.2-1.3-0.9-2.1c0.3-0.8,1.2-1.2,2.1-0.9
		c0.2,0.1,0.4,0.1,0.5,0.2c0.8,0.3,1.3,1.2,1,2c-0.2,0.7-0.9,1.1-1.5,1.1C121.8,41.5,121.6,41.5,121.4,41.4"/>
	<path class="st0" d="M133.6,39.6c-0.4-0.8,0-1.8,0.8-2.1c0.2-0.1,0.4-0.2,0.5-0.3c0.8-0.4,1.8-0.1,2.2,0.7c0.4,0.8,0.1,1.7-0.7,2.2
		c-0.2,0.1-0.4,0.2-0.6,0.3c-0.2,0.1-0.5,0.2-0.7,0.2C134.4,40.5,133.9,40.2,133.6,39.6"/>
	<path class="st0" d="M114.9,37.4c-0.2-0.2-0.3-0.3-0.5-0.5c-0.6-0.6-0.6-1.7,0.1-2.3c0.7-0.6,1.7-0.6,2.3,0.1
		c0.1,0.1,0.3,0.3,0.4,0.4c0.6,0.6,0.6,1.6,0,2.3c-0.3,0.3-0.7,0.5-1.1,0.5C115.7,37.8,115.2,37.7,114.9,37.4"/>
	<path class="st0" d="M139.6,36c-0.6-0.6-0.6-1.6,0-2.3c0.2-0.1,0.3-0.3,0.4-0.4c0.6-0.6,1.6-0.7,2.3,0c0.6,0.6,0.6,1.6,0,2.3
		c-0.2,0.2-0.3,0.3-0.5,0.5c-0.3,0.3-0.7,0.4-1.1,0.4C140.3,36.5,139.9,36.3,139.6,36"/>
	<path class="st0" d="M110.7,31.1c-0.1-0.2-0.2-0.4-0.3-0.7c-0.3-0.8,0.1-1.7,0.9-2.1c0.8-0.3,1.7,0.1,2.1,0.9
		c0.1,0.2,0.1,0.4,0.2,0.5h0c0.4,0.8,0,1.7-0.8,2.1c-0.2,0.1-0.4,0.1-0.6,0.1C111.5,32,110.9,31.7,110.7,31.1"/>
	<path class="st0" d="M109.1,23.6v-0.2c0-0.2,0-0.3,0-0.4c0-0.9,0.7-1.6,1.6-1.6c0.9,0,1.6,0.7,1.6,1.6c0,0.1,0,0.2,0,0.4
		c0,0.1,0,0.1,0,0.2h0c0,0.9-0.7,1.6-1.6,1.6h0C109.8,25.2,109.1,24.5,109.1,23.6"/>
	<path class="st0" d="M111.4,18.2c-0.8-0.3-1.2-1.3-0.9-2.1c0.1-0.2,0.2-0.4,0.3-0.6c0.4-0.8,1.3-1.2,2.1-0.8
		c0.8,0.4,1.2,1.3,0.8,2.1c-0.1,0.2-0.2,0.4-0.2,0.5c-0.2,0.6-0.8,1-1.5,1C111.7,18.3,111.6,18.3,111.4,18.2"/>
	<path class="st0" d="M197.9,32.9c-0.8-0.4-1.1-1.4-0.7-2.2c0.1-0.2,0.2-0.4,0.3-0.6c0.4-0.8,1.4-1.1,2.2-0.7
		c0.8,0.4,1.1,1.4,0.6,2.2c-0.1,0.2-0.2,0.4-0.3,0.6c-0.3,0.5-0.8,0.8-1.4,0.8C198.4,33.1,198.1,33,197.9,32.9"/>
	<path class="st0" d="M201.3,26.8c-0.7-0.5-1-1.5-0.5-2.2c0.1-0.2,0.2-0.4,0.4-0.5c0.5-0.7,1.5-0.9,2.2-0.4c0.7,0.5,0.9,1.5,0.4,2.2
		c-0.1,0.2-0.2,0.3-0.3,0.5c-0.3,0.5-0.8,0.7-1.3,0.7C201.9,27,201.6,26.9,201.3,26.8"/>
	<path class="st0" d="M205.3,21c-0.7-0.6-0.8-1.6-0.2-2.3c0.1-0.2,0.3-0.3,0.4-0.5c0.6-0.7,1.6-0.8,2.3-0.2c0.7,0.6,0.8,1.6,0.2,2.3
		c-0.1,0.2-0.3,0.3-0.4,0.5c-0.3,0.4-0.8,0.6-1.2,0.6C206,21.4,205.6,21.2,205.3,21"/>
	<path class="st0" d="M209.9,15.7c-0.6-0.6-0.6-1.7,0-2.3c0.2-0.2,0.3-0.3,0.5-0.5v0c0.6-0.6,1.7-0.6,2.3,0.1
		c0.6,0.6,0.6,1.7-0.1,2.3c-0.2,0.1-0.3,0.3-0.4,0.4c-0.3,0.3-0.7,0.5-1.1,0.5C210.7,16.2,210.3,16,209.9,15.7"/>
	<path class="st0" d="M241.6,12.6c-0.1-0.1-0.3-0.3-0.4-0.4c-0.6-0.6-0.7-1.6,0-2.3c0.6-0.6,1.6-0.6,2.3,0c0.2,0.2,0.3,0.3,0.5,0.5
		c0.6,0.6,0.6,1.7,0,2.3c-0.3,0.3-0.7,0.5-1.1,0.5C242.3,13.1,241.9,12.9,241.6,12.6"/>
	<path class="st0" d="M215.2,11c-0.5-0.7-0.3-1.7,0.4-2.2c0.2-0.1,0.4-0.2,0.6-0.4h0c0.8-0.5,1.7-0.3,2.2,0.5
		c0.5,0.7,0.3,1.7-0.5,2.2c-0.2,0.1-0.3,0.2-0.5,0.3c-0.3,0.2-0.6,0.3-0.9,0.3C216,11.7,215.5,11.5,215.2,11"/>
	<path class="st0" d="M236.4,8.8c-0.2-0.1-0.4-0.2-0.5-0.2c-0.8-0.4-1.2-1.3-0.8-2.1c0.4-0.8,1.3-1.2,2.1-0.8
		c0.2,0.1,0.4,0.2,0.6,0.3h0c0.8,0.4,1.1,1.3,0.8,2.1c-0.3,0.6-0.9,0.9-1.4,0.9C236.9,9,236.6,8.9,236.4,8.8"/>
	<path class="st0" d="M221.3,7.5c-0.3-0.8,0.1-1.7,1-2c0.2-0.1,0.4-0.1,0.6-0.2c0.8-0.3,1.7,0.2,2,1c0.3,0.8-0.2,1.7-1,2
		c-0.2,0.1-0.4,0.1-0.6,0.2c-0.2,0.1-0.4,0.1-0.5,0.1C222.1,8.5,221.5,8.1,221.3,7.5"/>
	<path class="st0" d="M230.3,7.3c-0.2,0-0.4,0-0.6,0c-0.9,0-1.6-0.7-1.6-1.6c0-0.9,0.7-1.6,1.6-1.6c0.2,0,0.5,0,0.7,0v0
		c0.9,0,1.6,0.8,1.5,1.7C231.9,6.6,231.2,7.3,230.3,7.3L230.3,7.3z"/>
	<path class="st0" d="M229.9,42.7c-0.2,0-0.5,0-0.7-0.1c-0.9-0.1-1.5-0.9-1.4-1.8c0.1-0.9,0.9-1.5,1.8-1.4c0.2,0,0.4,0,0.6,0.1
		c0.9,0.1,1.5,0.8,1.5,1.7c-0.1,0.8-0.8,1.5-1.6,1.5C230,42.7,230,42.7,229.9,42.7"/>
	<path class="st0" d="M234.8,40.8c-0.3-0.8,0.2-1.7,1-2c0.2-0.1,0.4-0.1,0.5-0.2c0.8-0.3,1.7,0.1,2.1,0.9c0.3,0.8-0.1,1.8-0.9,2.1
		c-0.2,0.1-0.4,0.2-0.7,0.2c-0.2,0.1-0.4,0.1-0.5,0.1C235.7,41.9,235,41.5,234.8,40.8"/>
	<path class="st0" d="M222.6,40.7c-0.2-0.1-0.4-0.2-0.6-0.3c-0.8-0.4-1.1-1.4-0.7-2.2c0.4-0.8,1.4-1.1,2.2-0.7
		c0.2,0.1,0.4,0.2,0.5,0.3c0.8,0.4,1.1,1.3,0.8,2.1c-0.3,0.6-0.8,0.9-1.4,0.9C223,40.9,222.8,40.9,222.6,40.7"/>
	<path class="st0" d="M241.1,37.7c-0.6-0.6-0.6-1.6,0-2.3c0.1-0.1,0.3-0.3,0.4-0.4c0.6-0.7,1.6-0.7,2.3-0.1c0.6,0.6,0.7,1.6,0.1,2.3
		c-0.2,0.2-0.3,0.3-0.5,0.5h0c-0.3,0.3-0.7,0.5-1.1,0.5C241.8,38.2,241.4,38,241.1,37.7"/>
	<path class="st0" d="M216.4,36.4c-0.2-0.2-0.3-0.3-0.5-0.5c-0.6-0.6-0.6-1.6,0-2.3c0.6-0.6,1.6-0.6,2.3,0c0.1,0.1,0.3,0.3,0.4,0.4
		c0.6,0.6,0.6,1.6,0,2.3c-0.3,0.3-0.7,0.5-1.1,0.5C217.1,36.9,216.7,36.7,216.4,36.4"/>
	<path class="st0" d="M245.5,32.3c-0.8-0.3-1.2-1.3-0.9-2.1c0.1-0.2,0.1-0.4,0.2-0.5c0.3-0.8,1.2-1.2,2.1-0.9
		c0.8,0.3,1.2,1.2,0.9,2.1c-0.1,0.2-0.2,0.4-0.3,0.6c-0.3,0.6-0.8,1-1.5,1C246,32.4,245.7,32.4,245.5,32.3"/>
	<path class="st0" d="M247.6,25.6c-0.9,0-1.6-0.7-1.6-1.6v-0.2c0-0.1,0-0.2,0-0.4c0-0.9,0.7-1.6,1.6-1.6c0.9,0,1.6,0.7,1.6,1.6
		c0,0.1,0,0.3,0,0.4c0,0.1,0,0.2,0,0.3C249.2,24.9,248.5,25.6,247.6,25.6L247.6,25.6z"/>
	<path class="st0" d="M244.9,17.7c-0.1-0.2-0.1-0.4-0.2-0.5c-0.4-0.8,0-1.8,0.8-2.1c0.8-0.4,1.8,0,2.1,0.8c0.1,0.2,0.2,0.4,0.3,0.6
		c0.3,0.8-0.1,1.7-0.9,2.1c-0.2,0.1-0.4,0.1-0.6,0.1C245.7,18.7,245.1,18.3,244.9,17.7"/>
	<path class="st0" d="M170.6,75.4l-0.6,0c-0.9,0-1.6-0.7-1.6-1.6c0-0.9,0.7-1.6,1.6-1.6h0.6c0.9,0,1.6,0.7,1.6,1.6
		C172.2,74.7,171.5,75.4,170.6,75.4L170.6,75.4z"/>
	<path class="st0" d="M163.6,75.4l-0.6,0c-0.9,0-1.6-0.7-1.6-1.6c0-0.9,0.7-1.6,1.6-1.6l0.6,0c0.9,0,1.6,0.7,1.6,1.6
		C165.2,74.7,164.4,75.4,163.6,75.4L163.6,75.4z"/>
	<path class="st0" d="M156.5,75.3h-0.6c-0.9,0-1.6-0.7-1.6-1.6c0-0.9,0.7-1.6,1.6-1.6l0.6,0c0.9,0,1.6,0.7,1.6,1.6
		C158.1,74.6,157.4,75.3,156.5,75.3L156.5,75.3z"/>
	<path class="st0" d="M51,62.8c-0.1-0.2-0.1-0.5-0.2-0.7c-0.2-0.9,0.3-1.7,1.2-1.9c0.9-0.2,1.7,0.3,1.9,1.2c0,0.2,0.1,0.4,0.1,0.6
		c0.2,0.8-0.3,1.7-1.1,2c-0.1,0-0.3,0.1-0.4,0.1C51.8,64,51.2,63.5,51,62.8"/>
	<path class="st0" d="M87,62.9c-0.9-0.2-1.4-1-1.3-1.9c0-0.2,0.1-0.4,0.1-0.6c0.1-0.9,1-1.5,1.8-1.3c0.9,0.1,1.5,1,1.3,1.8
		c0,0.2-0.1,0.5-0.1,0.7C88.7,62.4,88,63,87.3,63C87.2,63,87.1,63,87,62.9"/>
	<path class="st0" d="M51.9,57c-0.9-0.1-1.5-0.9-1.4-1.8c0-0.2,0.1-0.5,0.1-0.7c0.2-0.9,1-1.4,1.9-1.3c0.9,0.2,1.5,1,1.3,1.9
		c0,0.2-0.1,0.4-0.1,0.6c-0.1,0.8-0.8,1.4-1.6,1.4C52.1,57,52,57,51.9,57"/>
	<path class="st0" d="M85.7,54.7c0-0.2-0.1-0.4-0.1-0.6c-0.2-0.9,0.3-1.7,1.2-1.9c0.9-0.2,1.7,0.3,1.9,1.2c0,0.2,0.1,0.4,0.1,0.7
		c0.2,0.9-0.4,1.7-1.2,1.9c-0.1,0-0.2,0-0.3,0C86.5,56,85.8,55.5,85.7,54.7"/>
	<path class="st0" d="M53.6,50.2c-0.8-0.5-1-1.4-0.6-2.2c0.1-0.2,0.2-0.4,0.4-0.6c0.5-0.7,1.5-0.9,2.2-0.5c0.7,0.5,1,1.5,0.5,2.2
		c-0.1,0.2-0.2,0.3-0.3,0.5c-0.3,0.5-0.8,0.8-1.4,0.8C54.2,50.4,53.9,50.4,53.6,50.2"/>
	<path class="st0" d="M83.2,48.8c-0.1-0.2-0.2-0.3-0.3-0.5c-0.5-0.7-0.4-1.7,0.3-2.2c0.7-0.5,1.7-0.4,2.2,0.3
		c0.1,0.2,0.3,0.4,0.4,0.6c0.5,0.7,0.3,1.7-0.4,2.2c-0.3,0.2-0.6,0.3-0.9,0.3C84,49.5,83.5,49.3,83.2,48.8"/>
	<path class="st0" d="M57.9,44.6c-0.5-0.7-0.4-1.7,0.3-2.2c0.2-0.1,0.4-0.3,0.6-0.4c0.7-0.5,1.7-0.3,2.2,0.4
		c0.5,0.7,0.3,1.7-0.4,2.2c-0.2,0.1-0.3,0.2-0.5,0.3c-0.3,0.2-0.6,0.3-1,0.3C58.6,45.3,58.2,45,57.9,44.6"/>
	<path class="st0" d="M78.7,44.4c-0.2-0.1-0.3-0.2-0.5-0.3c-0.7-0.5-1-1.4-0.5-2.2c0.5-0.8,1.4-1,2.2-0.5c0.2,0.1,0.4,0.2,0.6,0.4
		c0.7,0.5,0.9,1.5,0.5,2.2c-0.3,0.5-0.8,0.7-1.3,0.7C79.3,44.6,78.9,44.5,78.7,44.4"/>
	<path class="st0" d="M63.9,41c-0.2-0.9,0.3-1.7,1.2-1.9c0.2-0.1,0.5-0.1,0.7-0.2c0.9-0.2,1.7,0.4,1.9,1.2c0.2,0.9-0.4,1.7-1.2,1.9
		c-0.2,0-0.4,0.1-0.6,0.1c-0.1,0-0.3,0.1-0.4,0.1C64.7,42.3,64.1,41.8,63.9,41"/>
	<path class="st0" d="M72.8,42c-0.2,0-0.4-0.1-0.6-0.1c-0.9-0.1-1.5-0.9-1.3-1.8c0.1-0.9,0.9-1.5,1.8-1.4c0.2,0,0.5,0.1,0.7,0.1v0
		c0.9,0.2,1.4,1,1.3,1.9c-0.1,0.8-0.8,1.3-1.6,1.3C73,42,72.9,42,72.8,42"/>
	<path class="st0" d="M153.4,96.5c0-0.9,0.7-1.6,1.6-1.6c0.2,0,0.4,0,0.6,0c0.9,0,1.6,0.7,1.7,1.5c0,0.9-0.7,1.6-1.5,1.7
		c-0.2,0-0.5,0-0.7,0C154.1,98.1,153.4,97.4,153.4,96.5"/>
	<path class="st0" d="M160.3,95.7c-0.4-0.8,0-1.7,0.8-2.1c0.2-0.1,0.4-0.2,0.5-0.2c0.8-0.4,1.8,0,2.1,0.8c0.4,0.8,0,1.8-0.8,2.1
		c-0.2,0.1-0.4,0.2-0.6,0.3c-0.2,0.1-0.4,0.1-0.6,0.1C161.2,96.7,160.6,96.3,160.3,95.7"/>
	<path class="st0" d="M20.8,95.3c-0.9,0-1.6-0.7-1.6-1.6c0-0.9,0.7-1.6,1.6-1.6H21h0.4c0.9,0,1.6,0.7,1.7,1.5c0,0.9-0.7,1.6-1.6,1.6
		c-0.2,0-0.4,0-0.5,0h-0.1H20.8z"/>
	<path class="st0" d="M14,94c-0.2-0.1-0.4-0.2-0.6-0.3c-0.8-0.3-1.2-1.3-0.8-2.1c0.3-0.8,1.3-1.2,2.1-0.8c0.2,0.1,0.4,0.2,0.5,0.2
		c0.8,0.3,1.2,1.2,0.9,2.1c-0.2,0.6-0.9,1-1.5,1C14.4,94.1,14.2,94.1,14,94"/>
	<path class="st0" d="M26.2,93c-0.3-0.8,0.1-1.7,0.9-2.1c0.2-0.1,0.4-0.1,0.5-0.2c0.8-0.4,1.7,0,2.1,0.8c0.4,0.8,0,1.8-0.8,2.1
		c-0.2,0.1-0.4,0.2-0.6,0.3c-0.2,0.1-0.4,0.1-0.6,0.1C27.1,94,26.5,93.6,26.2,93"/>
	<path class="st0" d="M166.4,92.2c-0.6-0.6-0.6-1.6,0.1-2.3c0.1-0.1,0.3-0.3,0.4-0.4c0.6-0.6,1.6-0.6,2.3,0c0.6,0.6,0.6,1.6,0,2.3
		c-0.2,0.2-0.3,0.3-0.5,0.5c-0.3,0.3-0.7,0.4-1.1,0.4C167.2,92.8,166.8,92.6,166.4,92.2"/>
	<path class="st0" d="M7.6,89.9c-0.2-0.2-0.3-0.3-0.5-0.5c-0.6-0.6-0.6-1.6,0-2.3c0.6-0.6,1.6-0.6,2.3,0c0.1,0.1,0.3,0.3,0.4,0.4
		c0.6,0.6,0.7,1.6,0.1,2.3c-0.3,0.3-0.7,0.5-1.2,0.5C8.3,90.4,7.9,90.2,7.6,89.9"/>
	<path class="st0" d="M32.4,89.6c-0.6-0.6-0.6-1.6,0-2.3c0.1-0.1,0.3-0.3,0.4-0.4c0.6-0.6,1.6-0.7,2.3-0.1c0.6,0.6,0.7,1.6,0.1,2.3
		c-0.2,0.2-0.3,0.3-0.5,0.5h0c-0.3,0.3-0.7,0.5-1.1,0.5C33.1,90.1,32.7,89.9,32.4,89.6"/>
	<path class="st0" d="M171.2,87.1c-0.8-0.5-1-1.4-0.5-2.2c0.1-0.2,0.2-0.3,0.3-0.5c0.4-0.8,1.4-1,2.2-0.6c0.8,0.4,1,1.4,0.6,2.2
		c-0.1,0.2-0.2,0.4-0.4,0.6c-0.3,0.5-0.8,0.8-1.4,0.8C171.7,87.3,171.4,87.2,171.2,87.1"/>
	<path class="st0" d="M3.2,83.7C3.1,83.5,3,83.3,2.9,83C2.6,82.2,3,81.3,3.8,81c0.8-0.3,1.8,0.1,2.1,0.9C6,82,6,82.2,6.1,82.4
		c0.4,0.8,0,1.8-0.8,2.1c-0.2,0.1-0.4,0.1-0.6,0.1C4,84.6,3.5,84.3,3.2,83.7"/>
	<path class="st0" d="M36.8,84.2c-0.8-0.3-1.2-1.3-0.9-2.1c0.1-0.2,0.1-0.4,0.2-0.5c0.3-0.8,1.2-1.2,2.1-0.9
		c0.8,0.3,1.2,1.2,0.9,2.1c-0.1,0.2-0.2,0.4-0.2,0.6h0c-0.2,0.6-0.9,1-1.5,1C37.2,84.3,37,84.3,36.8,84.2"/>
	<path class="st0" d="M82.4,80.9c0-0.9,0.7-1.6,1.6-1.6c0.2,0,0.4,0,0.6,0c0.9,0,1.6,0.7,1.6,1.6c0,0.9-0.7,1.6-1.6,1.6
		c-0.2,0-0.4,0-0.7,0h0C83.2,82.5,82.4,81.8,82.4,80.9"/>
	<path class="st0" d="M77.4,82.1C77.2,82,77,82,76.8,82c-0.9-0.1-1.5-1-1.3-1.8c0.1-0.9,0.9-1.5,1.8-1.3c0.2,0,0.4,0.1,0.6,0.1
		c0.9,0.1,1.5,0.9,1.4,1.8c-0.1,0.8-0.8,1.4-1.6,1.4C77.6,82.1,77.5,82.1,77.4,82.1"/>
	<path class="st0" d="M89.5,80.5c-0.2-0.9,0.4-1.7,1.3-1.9c0.2,0,0.4-0.1,0.6-0.1c0.9-0.2,1.7,0.4,1.9,1.3c0.2,0.9-0.4,1.7-1.3,1.9
		c-0.2,0-0.4,0.1-0.6,0.1c-0.1,0-0.2,0-0.3,0C90.3,81.8,89.6,81.3,89.5,80.5"/>
	<path class="st0" d="M174.4,80.8c-0.8-0.3-1.3-1.2-1-2c0-0.2,0.1-0.4,0.2-0.6c0.2-0.8,1.1-1.3,2-1.1c0.9,0.2,1.3,1.1,1.1,2
		c-0.1,0.2-0.1,0.4-0.2,0.7h0c-0.2,0.7-0.8,1.1-1.5,1.1C174.8,80.9,174.6,80.9,174.4,80.8"/>
	<path class="st0" d="M70.3,80.6c-0.2-0.1-0.4-0.1-0.6-0.2c-0.9-0.2-1.3-1.1-1.1-2c0.2-0.8,1.1-1.3,2-1.1c0.2,0.1,0.4,0.1,0.6,0.2h0
		c0.9,0.2,1.4,1.1,1.1,2c-0.2,0.7-0.8,1.2-1.5,1.2C70.6,80.6,70.5,80.6,70.3,80.6"/>
	<path class="st0" d="M96.3,79c-0.3-0.8,0.2-1.8,1-2c0.2-0.1,0.4-0.1,0.6-0.2c0.8-0.3,1.7,0.1,2,1c0.3,0.8-0.1,1.7-1,2
		c-0.2,0.1-0.4,0.1-0.6,0.2c-0.2,0.1-0.3,0.1-0.5,0.1C97.2,80.1,96.5,79.6,96.3,79"/>
	<path class="st0" d="M63.5,78.2c-0.2-0.1-0.4-0.2-0.6-0.2c-0.8-0.3-1.2-1.3-0.9-2.1c0.3-0.8,1.3-1.2,2.1-0.9
		c0.2,0.1,0.4,0.2,0.6,0.2v0c0.8,0.3,1.2,1.3,0.9,2.1c-0.3,0.6-0.9,1-1.5,1C63.9,78.3,63.7,78.3,63.5,78.2"/>
	<path class="st0" d="M1.5,76.2c0-0.1,0-0.3,0-0.4v-0.3c0-0.9,0.7-1.6,1.6-1.6c0.9,0,1.6,0.7,1.6,1.6c0,0.1,0,0.2,0,0.3
		c0,0.1,0,0.2,0,0.3c0,0.9-0.7,1.6-1.6,1.6h0C2.3,77.8,1.6,77.1,1.5,76.2"/>
	<path class="st0" d="M102.9,76.5c-0.4-0.8-0.1-1.8,0.7-2.1c0.2-0.1,0.4-0.2,0.6-0.3c0.8-0.4,1.8-0.1,2.2,0.7
		c0.4,0.8,0.1,1.8-0.7,2.2c-0.2,0.1-0.4,0.2-0.6,0.3c-0.2,0.1-0.5,0.2-0.7,0.2C103.7,77.3,103.1,77,102.9,76.5"/>
	<path class="st0" d="M57.1,74.6l-0.5-0.4c-0.7-0.5-0.9-1.5-0.3-2.2c0.5-0.7,1.5-0.9,2.2-0.3L59,72c0.7,0.5,0.9,1.5,0.3,2.2
		c-0.3,0.4-0.8,0.6-1.3,0.6C57.7,74.9,57.4,74.8,57.1,74.6"/>
	<path class="st0" d="M176,74c-0.9,0-1.6-0.7-1.6-1.6v-0.1c0-0.2,0-0.3,0-0.5c0-0.9,0.7-1.6,1.6-1.6c0.9,0,1.6,0.7,1.6,1.6
		c0,0.2,0,0.4,0,0.6c0,0,0,0.1,0,0.1C177.6,73.3,176.9,74,176,74L176,74z"/>
	<path class="st0" d="M109.1,73.2c-0.5-0.8-0.2-1.7,0.5-2.2c0.2-0.1,0.4-0.2,0.5-0.3c0.7-0.5,1.7-0.2,2.2,0.5
		c0.5,0.7,0.2,1.7-0.5,2.2c-0.2,0.1-0.4,0.2-0.5,0.3c-0.3,0.2-0.5,0.2-0.8,0.2C109.9,73.9,109.4,73.6,109.1,73.2"/>
	<path class="st0" d="M3.8,70.8c-0.8-0.3-1.2-1.2-0.9-2.1c0.1-0.2,0.2-0.4,0.3-0.6v0c0.3-0.8,1.3-1.2,2.1-0.8
		c0.8,0.3,1.2,1.3,0.9,2.1c-0.1,0.2-0.2,0.4-0.2,0.5c-0.2,0.6-0.9,1-1.5,1C4.2,70.9,4,70.9,3.8,70.8"/>
	<path class="st0" d="M51.5,70.2c-0.2-0.1-0.3-0.3-0.5-0.4c-0.7-0.5-0.8-1.5-0.3-2.2c0.5-0.7,1.5-0.8,2.2-0.3
		c0.2,0.1,0.3,0.3,0.5,0.4c0.7,0.6,0.8,1.6,0.3,2.3c-0.3,0.4-0.8,0.6-1.3,0.6C52.2,70.6,51.8,70.4,51.5,70.2"/>
	<path class="st0" d="M115,69.4c-0.5-0.7-0.3-1.7,0.4-2.2c0.2-0.1,0.3-0.2,0.5-0.4c0.7-0.5,1.7-0.3,2.2,0.4c0.5,0.7,0.3,1.7-0.4,2.2
		c-0.2,0.1-0.4,0.2-0.5,0.4c-0.3,0.2-0.6,0.3-0.9,0.3C115.8,70.1,115.3,69.8,115,69.4"/>
	<path class="st0" d="M173.5,65.9c-0.1-0.2-0.1-0.4-0.2-0.6c-0.3-0.8,0.1-1.8,1-2c0.8-0.3,1.7,0.1,2,1c0.1,0.2,0.2,0.4,0.2,0.7
		c0.3,0.8-0.2,1.7-1,2c-0.2,0.1-0.3,0.1-0.5,0.1C174.3,67.1,173.7,66.6,173.5,65.9"/>
	<path class="st0" d="M45.9,66.1c-0.2-0.1-0.3-0.2-0.5-0.3c-0.7-0.5-1-1.5-0.5-2.2c0.5-0.7,1.5-1,2.2-0.5c0.2,0.1,0.4,0.2,0.5,0.4
		c0.7,0.5,0.9,1.5,0.5,2.2c-0.3,0.5-0.8,0.7-1.3,0.7C46.5,66.4,46.2,66.3,45.9,66.1"/>
	<path class="st0" d="M120.8,65.3c-0.5-0.7-0.4-1.7,0.4-2.2c0.2-0.1,0.3-0.2,0.5-0.4c0.7-0.5,1.7-0.3,2.2,0.4
		c0.5,0.7,0.3,1.7-0.4,2.2c-0.2,0.1-0.3,0.3-0.5,0.4c-0.3,0.2-0.6,0.3-0.9,0.3C121.6,66,121.1,65.7,120.8,65.3"/>
	<path class="st0" d="M6.9,64.5c-0.7-0.6-0.8-1.6-0.2-2.2c0.1-0.2,0.3-0.3,0.5-0.5h0c0.6-0.7,1.6-0.7,2.3-0.2
		c0.7,0.6,0.7,1.6,0.2,2.3c-0.1,0.2-0.3,0.3-0.4,0.5c-0.3,0.4-0.8,0.6-1.2,0.6C7.6,64.9,7.2,64.7,6.9,64.5"/>
	<path class="st0" d="M40,62.6c-0.2-0.1-0.4-0.2-0.6-0.3c-0.8-0.4-1.1-1.4-0.7-2.2c0.4-0.8,1.4-1.1,2.1-0.7c0.2,0.1,0.4,0.2,0.6,0.3
		c0.8,0.4,1.1,1.4,0.7,2.2c-0.3,0.5-0.8,0.9-1.4,0.9C40.5,62.8,40.3,62.8,40,62.6"/>
	<path class="st0" d="M126.5,61.2c-0.5-0.7-0.3-1.7,0.4-2.2c0.2-0.1,0.4-0.2,0.5-0.4c0.7-0.5,1.7-0.3,2.2,0.4
		c0.5,0.7,0.3,1.7-0.4,2.2c-0.2,0.1-0.3,0.2-0.5,0.4c-0.3,0.2-0.6,0.3-0.9,0.3C127.3,61.9,126.8,61.7,126.5,61.2"/>
	<path class="st0" d="M170.5,60.2c-0.1-0.2-0.2-0.3-0.4-0.5c-0.5-0.7-0.4-1.7,0.3-2.2c0.7-0.5,1.7-0.4,2.3,0.3
		c0.1,0.2,0.3,0.4,0.4,0.5h0c0.5,0.7,0.4,1.7-0.3,2.2c-0.3,0.2-0.6,0.3-0.9,0.3C171.3,60.8,170.8,60.6,170.5,60.2"/>
	<path class="st0" d="M11.8,59.5c-0.5-0.8-0.2-1.7,0.6-2.2c0.2-0.1,0.4-0.2,0.6-0.3c0.8-0.4,1.7-0.1,2.2,0.6
		c0.4,0.8,0.1,1.7-0.6,2.2c-0.2,0.1-0.3,0.2-0.5,0.3c-0.3,0.2-0.5,0.2-0.8,0.2C12.7,60.3,12.1,60,11.8,59.5"/>
	<path class="st0" d="M33.8,59.9c-0.2-0.1-0.4-0.1-0.6-0.2c-0.8-0.3-1.3-1.2-1-2c0.3-0.8,1.2-1.3,2-1c0.2,0.1,0.4,0.1,0.6,0.2
		c0.8,0.3,1.3,1.2,1,2C35.6,59.6,35,60,34.3,60C34.2,60,34,60,33.8,59.9"/>
	<path class="st0" d="M27.3,58.4c-0.2,0-0.4-0.1-0.6-0.1c-0.9-0.1-1.5-0.9-1.4-1.8c0.1-0.9,0.9-1.5,1.8-1.4c0.2,0,0.4,0.1,0.7,0.1v0
		c0.9,0.1,1.5,0.9,1.4,1.8c-0.1,0.8-0.8,1.4-1.6,1.4C27.4,58.4,27.3,58.4,27.3,58.4"/>
	<path class="st0" d="M132.3,57.3c-0.4-0.8-0.2-1.7,0.6-2.2c0.2-0.1,0.4-0.2,0.6-0.3c0.8-0.4,1.7-0.2,2.2,0.6
		c0.4,0.8,0.2,1.7-0.6,2.2c-0.2,0.1-0.4,0.2-0.5,0.3c-0.3,0.1-0.5,0.2-0.8,0.2C133.2,58.1,132.6,57.8,132.3,57.3"/>
	<path class="st0" d="M18.2,56.6c-0.1-0.9,0.6-1.7,1.5-1.7c0.2,0,0.5,0,0.7,0c0.9,0,1.6,0.6,1.7,1.5c0,0.9-0.7,1.6-1.5,1.7
		c-0.2,0-0.4,0-0.6,0c-0.1,0-0.1,0-0.1,0C19,58.1,18.3,57.5,18.2,56.6"/>
	<path class="st0" d="M165.9,55.6c-0.2-0.1-0.3-0.2-0.5-0.3c-0.7-0.5-0.9-1.5-0.4-2.2c0.5-0.7,1.5-0.9,2.2-0.4
		c0.2,0.1,0.4,0.3,0.6,0.4h0c0.7,0.5,0.9,1.5,0.4,2.2c-0.3,0.4-0.8,0.7-1.3,0.7C166.5,55.9,166.2,55.8,165.9,55.6"/>
	<path class="st0" d="M138.5,53.9c-0.4-0.8,0-1.7,0.8-2.1c0.2-0.1,0.4-0.2,0.6-0.3c0.8-0.4,1.8,0,2.1,0.8c0.3,0.8,0,1.8-0.8,2.1
		c-0.2,0.1-0.4,0.2-0.6,0.2c-0.2,0.1-0.4,0.1-0.6,0.1C139.3,54.9,138.8,54.5,138.5,53.9"/>
	<path class="st0" d="M160.1,52.7c-0.2-0.1-0.4-0.1-0.6-0.2c-0.8-0.2-1.3-1.1-1.1-2c0.3-0.9,1.1-1.3,2-1.1c0.2,0.1,0.4,0.1,0.6,0.2
		v0c0.8,0.3,1.3,1.2,1,2c-0.2,0.7-0.8,1.1-1.5,1.1C160.4,52.7,160.2,52.7,160.1,52.7"/>
	<path class="st0" d="M145,51.4c-0.2-0.9,0.3-1.7,1.2-1.9c0.2-0.1,0.4-0.1,0.7-0.2h0c0.9-0.2,1.7,0.4,1.9,1.2
		c0.2,0.9-0.4,1.7-1.2,1.9c-0.2,0-0.4,0.1-0.6,0.1c-0.1,0-0.3,0-0.4,0C145.9,52.6,145.2,52.1,145,51.4"/>
	<path class="st0" d="M152,50.1c0-0.9,0.7-1.6,1.6-1.6c0.2,0,0.4,0,0.6,0c0.9,0,1.6,0.7,1.6,1.5c0,0.9-0.6,1.6-1.5,1.7h0v0
		c-0.1,0-0.2,0-0.2,0c-0.1,0-0.3,0-0.4,0h0C152.7,51.7,152,51,152,50.1"/>
	<path class="st0" d="M280,166c-0.1-0.2-0.3-0.3-0.4-0.5c-0.5-0.7-0.4-1.7,0.3-2.2c0.7-0.5,1.7-0.4,2.2,0.3c0.1,0.2,0.3,0.4,0.4,0.5
		v0c0.5,0.7,0.4,1.7-0.4,2.2c-0.3,0.2-0.6,0.3-0.9,0.3C280.7,166.7,280.3,166.4,280,166"/>
	<path class="st0" d="M275.6,160.7c-0.1-0.1-0.3-0.3-0.4-0.4c-0.6-0.6-0.6-1.7,0-2.3c0.6-0.6,1.7-0.6,2.3,0.1
		c0.2,0.2,0.3,0.3,0.4,0.5c0.6,0.6,0.6,1.6-0.1,2.3c-0.3,0.3-0.7,0.4-1.1,0.4C276.3,161.3,275.9,161.1,275.6,160.7"/>
	<path class="st0" d="M270.6,156c-0.2-0.1-0.3-0.3-0.5-0.4c-0.7-0.6-0.8-1.6-0.2-2.3c0.6-0.7,1.6-0.8,2.3-0.2
		c0.2,0.1,0.3,0.3,0.5,0.4c0.7,0.6,0.7,1.6,0.2,2.2c-0.3,0.4-0.8,0.6-1.2,0.6C271.3,156.4,270.9,156.2,270.6,156"/>
	<path class="st0" d="M265.2,151.8c-0.2-0.1-0.3-0.2-0.5-0.4c-0.7-0.5-0.9-1.5-0.4-2.2c0.5-0.7,1.5-0.9,2.2-0.4
		c0.2,0.1,0.4,0.2,0.5,0.4c0.7,0.5,0.9,1.5,0.4,2.2c-0.3,0.4-0.8,0.7-1.3,0.7C265.8,152,265.5,152,265.2,151.8"/>
	<path class="st0" d="M259.4,148.1c-0.2-0.1-0.4-0.2-0.6-0.3c-0.8-0.4-1.1-1.4-0.7-2.2c0.4-0.8,1.4-1.1,2.2-0.7
		c0.2,0.1,0.4,0.2,0.6,0.3c0.8,0.4,1.1,1.4,0.6,2.2c-0.3,0.5-0.8,0.8-1.4,0.8C259.9,148.3,259.6,148.3,259.4,148.1"/>
	<path class="st0" d="M253.2,145.3c-0.2-0.1-0.4-0.1-0.6-0.2c-0.8-0.3-1.3-1.2-1-2c0.3-0.8,1.2-1.3,2-1c0.2,0.1,0.4,0.2,0.6,0.2v0
		c0.8,0.3,1.2,1.2,0.9,2.1c-0.2,0.6-0.9,1-1.5,1C253.6,145.4,253.4,145.4,253.2,145.3"/>
	<path class="st0" d="M246.7,143.5c-0.2,0-0.4-0.1-0.6-0.1c-0.9-0.1-1.5-1-1.3-1.8c0.1-0.9,1-1.5,1.8-1.3c0.2,0,0.4,0.1,0.7,0.1
		c0.9,0.2,1.4,1,1.3,1.9c-0.1,0.8-0.8,1.3-1.6,1.3C246.9,143.5,246.8,143.5,246.7,143.5"/>
	<path class="st0" d="M298.4,173.4c0-0.9,0.7-1.6,1.6-1.6c0.2,0,0.4,0,0.6,0c0.9,0,1.6,0.7,1.7,1.5c0,0.9-0.7,1.6-1.5,1.7
		c-0.2,0-0.5,0-0.7,0C299.1,175,298.4,174.2,298.4,173.4"/>
	<path class="st0" d="M293.5,174.1c-0.2-0.1-0.4-0.1-0.6-0.2c-0.8-0.2-1.4-1.1-1.1-2c0.2-0.9,1.1-1.4,2-1.1c0.2,0,0.4,0.1,0.6,0.1
		c0.9,0.2,1.4,1.1,1.2,1.9c-0.2,0.7-0.8,1.2-1.6,1.2C293.8,174.1,293.7,174.1,293.5,174.1"/>
	<path class="st0" d="M305.4,172.6c-0.3-0.8,0.1-1.8,0.9-2.1c0.2-0.1,0.4-0.1,0.5-0.2c0.8-0.4,1.8,0,2.1,0.8c0.4,0.8,0,1.7-0.8,2.1
		c-0.2,0.1-0.4,0.2-0.6,0.3c-0.2,0.1-0.4,0.1-0.6,0.1C306.2,173.6,305.6,173.2,305.4,172.6"/>
	<path class="st0" d="M286.6,171.5c-0.2-0.1-0.4-0.2-0.6-0.3c-0.8-0.4-1.1-1.4-0.7-2.2c0.4-0.8,1.4-1.1,2.2-0.7
		c0.2,0.1,0.4,0.2,0.5,0.3c0.8,0.4,1.1,1.4,0.7,2.1c-0.3,0.6-0.8,0.9-1.4,0.9C287.1,171.7,286.8,171.6,286.6,171.5"/>
	<path class="st0" d="M311.6,169.4c-0.6-0.6-0.6-1.7,0.1-2.3c0.1-0.1,0.3-0.3,0.4-0.4c0.6-0.6,1.6-0.6,2.3,0c0.6,0.6,0.6,1.6,0,2.3
		c-0.2,0.2-0.3,0.3-0.5,0.5c-0.3,0.3-0.7,0.4-1.1,0.4C312.3,169.9,311.9,169.7,311.6,169.4"/>
	<path class="st0" d="M316.2,164c-0.8-0.4-1.2-1.3-0.8-2.1c0.1-0.2,0.2-0.4,0.2-0.5c0.3-0.8,1.3-1.2,2.1-0.9
		c0.8,0.4,1.2,1.3,0.9,2.1c-0.1,0.2-0.2,0.4-0.3,0.6c-0.3,0.6-0.8,0.9-1.4,0.9C316.6,164.2,316.4,164.1,316.2,164"/>
	<path class="st0" d="M318.4,157.4c-0.9,0-1.6-0.8-1.5-1.7c0-0.2,0-0.4,0-0.6c0-0.9,0.7-1.6,1.6-1.6c0.9,0,1.6,0.7,1.6,1.6
		c0,0.2,0,0.5,0,0.7C320.1,156.7,319.4,157.4,318.4,157.4L318.4,157.4z"/>
	<path class="st0" d="M280.6,151.9c0-0.2,0-0.5,0-0.7c0-0.9,0.8-1.6,1.6-1.6c0.9,0,1.6,0.8,1.5,1.6c0,0.2,0,0.4,0,0.6h0
		c0,0.9-0.7,1.6-1.6,1.6C281.3,153.5,280.6,152.7,280.6,151.9"/>
	<path class="st0" d="M315.9,149.4c-0.1-0.2-0.1-0.4-0.2-0.5c-0.3-0.8,0.1-1.7,0.9-2.1c0.8-0.3,1.8,0.1,2.1,0.9
		c0.1,0.2,0.2,0.4,0.2,0.6c0.3,0.8-0.1,1.8-1,2c-0.2,0.1-0.4,0.1-0.5,0.1C316.8,150.5,316.2,150.1,315.9,149.4"/>
	<path class="st0" d="M312.7,143.9c-0.1-0.1-0.3-0.3-0.4-0.4c-0.6-0.6-0.6-1.7,0.1-2.3c0.7-0.6,1.7-0.6,2.3,0.1
		c0.2,0.2,0.3,0.3,0.5,0.5c0.6,0.7,0.5,1.7-0.2,2.3c-0.3,0.3-0.7,0.4-1,0.4C313.5,144.4,313,144.2,312.7,143.9"/>
	<path class="st0" d="M286.3,140.5c-0.5-0.7-0.4-1.7,0.4-2.2c0.2-0.2,0.4-0.3,0.6-0.4c0.7-0.5,1.7-0.3,2.2,0.5
		c0.5,0.7,0.3,1.7-0.5,2.2c-0.2,0.1-0.3,0.2-0.5,0.3c-0.3,0.2-0.6,0.3-0.9,0.3C287.1,141.1,286.7,140.9,286.3,140.5"/>
	<path class="st0" d="M307.7,139.9c-0.2-0.1-0.3-0.2-0.5-0.3c-0.8-0.4-1.1-1.3-0.7-2.1c0.4-0.8,1.3-1.1,2.1-0.7
		c0.2,0.1,0.4,0.2,0.6,0.3c0.8,0.4,1.1,1.4,0.7,2.2c-0.3,0.5-0.9,0.9-1.4,0.9C308.2,140.1,307.9,140,307.7,139.9"/>
	<path class="st0" d="M292.5,137.1c-0.2-0.9,0.4-1.7,1.3-1.9c0.2-0.1,0.4-0.1,0.7-0.1c0.9-0.1,1.7,0.4,1.8,1.3
		c0.1,0.9-0.4,1.7-1.3,1.8c-0.2,0-0.4,0.1-0.6,0.1c-0.1,0-0.2,0-0.3,0C293.3,138.4,292.7,137.9,292.5,137.1"/>
	<path class="st0" d="M301.6,138c-0.2,0-0.4,0-0.6,0c-0.9-0.1-1.5-0.8-1.5-1.7c0.1-0.9,0.8-1.5,1.7-1.5c0.2,0,0.5,0,0.7,0.1
		c0.9,0.1,1.5,0.9,1.4,1.8c-0.1,0.8-0.8,1.4-1.6,1.4C301.7,138.1,301.6,138.1,301.6,138"/>
	<path class="st0" d="M95.7,201.2c-0.2-0.9,0.4-1.7,1.3-1.8c0.1,0,0.2,0,0.3-0.1c0.1,0,0.2,0,0.2,0c0.9-0.2,1.7,0.4,1.9,1.2
		c0.2,0.9-0.4,1.7-1.2,1.9c-0.1,0-0.2,0-0.3,0.1c-0.1,0-0.3,0.1-0.4,0.1c-0.1,0-0.2,0-0.3,0C96.5,202.5,95.8,202,95.7,201.2"/>
	<path class="st0" d="M90.6,202.5c-0.2,0-0.5-0.1-0.7-0.1c-0.9-0.2-1.4-1-1.2-1.9c0.2-0.9,1-1.4,1.9-1.2c0.2,0,0.4,0.1,0.6,0.1
		c0.9,0.2,1.4,1,1.3,1.9c-0.1,0.8-0.8,1.3-1.6,1.3C90.8,202.5,90.7,202.5,90.6,202.5"/>
	<path class="st0" d="M102.4,199.3c-0.5-0.8-0.3-1.7,0.5-2.2c0.2-0.1,0.3-0.2,0.5-0.3c0.7-0.5,1.7-0.3,2.2,0.4
		c0.5,0.7,0.3,1.7-0.4,2.2c-0.2,0.1-0.4,0.3-0.6,0.4c-0.3,0.2-0.6,0.2-0.9,0.2C103.3,200,102.7,199.8,102.4,199.3"/>
	<path class="st0" d="M83.5,199.7c-0.2-0.1-0.4-0.3-0.6-0.4c-0.7-0.5-0.9-1.5-0.4-2.2c0.5-0.7,1.5-0.9,2.2-0.4
		c0.2,0.1,0.3,0.2,0.5,0.3l0,0c0.7,0.5,1,1.5,0.5,2.2c-0.3,0.5-0.8,0.7-1.4,0.7C84.1,200,83.8,199.9,83.5,199.7"/>
	<path class="st0" d="M107.9,194.9c-0.7-0.5-0.9-1.5-0.4-2.2c0.1-0.2,0.2-0.3,0.3-0.5h0c0.5-0.7,1.5-0.9,2.2-0.5
		c0.7,0.5,0.9,1.5,0.5,2.2c-0.1,0.2-0.3,0.4-0.4,0.6c-0.3,0.4-0.8,0.7-1.3,0.7C108.6,195.2,108.2,195.1,107.9,194.9"/>
	<path class="st0" d="M78,194.4c-0.1-0.2-0.3-0.4-0.4-0.6c-0.5-0.7-0.3-1.7,0.5-2.2c0.7-0.5,1.7-0.3,2.2,0.5
		c0.1,0.2,0.2,0.3,0.3,0.5c0.5,0.7,0.3,1.7-0.4,2.2c-0.3,0.2-0.6,0.3-0.9,0.3C78.8,195.1,78.3,194.9,78,194.4"/>
	<path class="st0" d="M111.4,188.8c-0.9-0.2-1.4-1.1-1.2-1.9c0-0.2,0.1-0.4,0.1-0.6c0.2-0.9,1-1.4,1.9-1.3c0.9,0.2,1.4,1,1.3,1.9
		c0,0.2-0.1,0.5-0.1,0.7c-0.2,0.7-0.8,1.2-1.6,1.2C111.6,188.9,111.5,188.9,111.4,188.8"/>
	<path class="st0" d="M75,187.5c-0.1-0.2-0.1-0.4-0.1-0.6c0,0,0-0.1,0-0.1c-0.2-0.9,0.4-1.7,1.3-1.9c0.9-0.2,1.7,0.4,1.9,1.3
		c0,0,0,0.1,0,0.1c0,0.2,0.1,0.3,0.1,0.5c0.2,0.9-0.3,1.7-1.2,1.9c-0.1,0-0.2,0-0.3,0C75.8,188.7,75.1,188.2,75,187.5"/>
	<path class="st0" d="M110.4,180.5c0-0.2-0.1-0.4-0.1-0.6h0c-0.2-0.9,0.4-1.7,1.3-1.9c0.9-0.2,1.7,0.4,1.9,1.3
		c0,0.2,0.1,0.5,0.1,0.7c0.1,0.9-0.5,1.7-1.3,1.8c-0.1,0-0.2,0-0.3,0C111.2,181.9,110.6,181.3,110.4,180.5"/>
	<path class="st0" d="M76,181.7c-0.9-0.2-1.5-1-1.3-1.8c0-0.2,0.1-0.5,0.1-0.7c0.2-0.9,1-1.4,1.9-1.2c0.9,0.2,1.4,1,1.2,1.9
		c0,0.2-0.1,0.4-0.1,0.6c-0.1,0.8-0.8,1.3-1.6,1.3C76.2,181.7,76.1,181.7,76,181.7"/>
	<path class="st0" d="M77.9,175c-0.7-0.5-1-1.5-0.5-2.2c0.1-0.2,0.3-0.4,0.4-0.6c0.5-0.7,1.5-0.9,2.2-0.4c0.7,0.5,0.9,1.5,0.4,2.2
		c-0.1,0.2-0.2,0.3-0.3,0.5c-0.3,0.5-0.8,0.7-1.4,0.7C78.5,175.2,78.2,175.1,77.9,175"/>
	<path class="st0" d="M82.3,169.5c-0.5-0.7-0.4-1.7,0.3-2.2c0.2-0.1,0.4-0.3,0.5-0.4c0.7-0.5,1.7-0.4,2.2,0.4
		c0.5,0.7,0.4,1.7-0.4,2.2c-0.2,0.1-0.3,0.2-0.5,0.4c-0.3,0.2-0.6,0.3-1,0.3C83.1,170.1,82.6,169.9,82.3,169.5"/>
	<path class="st0" d="M145.5,236c-0.1-0.9,0.5-1.7,1.4-1.8c0.2,0,0.4,0,0.6-0.1c0.9-0.1,1.7,0.5,1.8,1.3c0.1,0.9-0.5,1.7-1.3,1.8
		c-0.2,0-0.5,0.1-0.7,0.1c-0.1,0-0.1,0-0.2,0C146.3,237.4,145.6,236.8,145.5,236"/>
	<path class="st0" d="M140.3,237c-0.2-0.1-0.5-0.1-0.7-0.2c-0.9-0.2-1.4-1.1-1.1-2c0.2-0.9,1.1-1.3,2-1.1c0.2,0.1,0.4,0.1,0.6,0.1
		c0.9,0.2,1.4,1.1,1.2,1.9c-0.2,0.7-0.8,1.2-1.6,1.2C140.6,237,140.5,237,140.3,237"/>
	<path class="st0" d="M151.5,234.7c-0.4-0.8-0.1-1.8,0.7-2.1c0.2-0.1,0.4-0.2,0.5-0.3h0c0.8-0.4,1.7-0.1,2.2,0.7
		c0.4,0.8,0.1,1.7-0.7,2.2c-0.2,0.1-0.4,0.2-0.6,0.3c-0.2,0.1-0.5,0.2-0.7,0.2C152.4,235.6,151.8,235.3,151.5,234.7"/>
	<path class="st0" d="M133.4,233.8c-0.2-0.1-0.4-0.3-0.6-0.4c-0.7-0.5-0.8-1.6-0.3-2.2c0.5-0.7,1.5-0.8,2.2-0.3
		c0.2,0.1,0.3,0.2,0.5,0.3c0.7,0.5,0.9,1.5,0.4,2.2c-0.3,0.4-0.8,0.7-1.3,0.7C134,234.1,133.7,234,133.4,233.8"/>
	<path class="st0" d="M157.5,231c-0.7-0.6-0.7-1.6-0.1-2.3c0.1-0.1,0.2-0.3,0.4-0.4h0c0.6-0.7,1.6-0.8,2.2-0.2
		c0.7,0.6,0.8,1.6,0.2,2.3c-0.1,0.2-0.3,0.4-0.4,0.5c-0.3,0.4-0.8,0.5-1.2,0.5C158.1,231.4,157.8,231.3,157.5,231"/>
	<path class="st0" d="M128.2,228.2c-0.1-0.2-0.2-0.4-0.4-0.6c-0.4-0.8-0.2-1.7,0.6-2.2c0.8-0.4,1.7-0.2,2.2,0.6
		c0.1,0.2,0.2,0.3,0.3,0.5c0.5,0.8,0.2,1.7-0.5,2.2c-0.3,0.2-0.6,0.2-0.8,0.2C129.1,229,128.5,228.7,128.2,228.2"/>
	<path class="st0" d="M161.5,225.3c-0.8-0.3-1.3-1.2-1-2c0.1-0.2,0.1-0.4,0.2-0.6c0.3-0.8,1.2-1.3,2-1c0.8,0.3,1.3,1.2,1,2
		c-0.1,0.2-0.1,0.4-0.2,0.7c-0.2,0.7-0.9,1.1-1.5,1.1C161.8,225.4,161.6,225.3,161.5,225.3"/>
	<path class="st0" d="M125.6,221.1c0-0.2-0.1-0.5-0.1-0.7c-0.1-0.9,0.5-1.7,1.4-1.8c0.9-0.1,1.7,0.5,1.8,1.4c0,0.2,0,0.4,0.1,0.6
		c0.1,0.9-0.5,1.7-1.3,1.8c-0.1,0-0.2,0-0.3,0C126.4,222.5,125.7,221.9,125.6,221.1"/>
	<path class="st0" d="M163.2,218.5c-0.9,0-1.6-0.8-1.5-1.7c0-0.2,0-0.4,0-0.6c0-0.9,0.7-1.6,1.6-1.6c0.9,0,1.6,0.7,1.6,1.6
		c0,0.2,0,0.5,0,0.7C164.8,217.8,164.1,218.5,163.2,218.5C163.2,218.5,163.2,218.5,163.2,218.5"/>
	<path class="st0" d="M127.2,215.4c-0.8-0.3-1.3-1.2-1-2c0.1-0.2,0.1-0.4,0.2-0.7c0.3-0.8,1.2-1.3,2-1c0.8,0.3,1.3,1.2,1,2
		c-0.1,0.2-0.1,0.4-0.2,0.5l0,0c-0.2,0.7-0.8,1.1-1.5,1.1C127.5,215.5,127.3,215.5,127.2,215.4"/>
	<path class="st0" d="M161.2,210c0-0.2-0.1-0.4-0.1-0.6c-0.1-0.9,0.5-1.7,1.4-1.8c0.9-0.1,1.7,0.5,1.8,1.4c0,0.2,0.1,0.4,0.1,0.7
		c0.1,0.9-0.5,1.7-1.4,1.8c-0.1,0-0.1,0-0.2,0C162,211.4,161.3,210.8,161.2,210"/>
	<path class="st0" d="M130,209c-0.7-0.6-0.7-1.6-0.1-2.3c0.1-0.2,0.3-0.3,0.5-0.5c0.6-0.6,1.6-0.7,2.3-0.1c0.6,0.6,0.7,1.6,0.1,2.3
		c-0.1,0.1-0.3,0.3-0.4,0.4c-0.3,0.4-0.8,0.5-1.2,0.5C130.7,209.4,130.3,209.3,130,209"/>
	<path class="st0" d="M135.2,204.3c-0.4-0.8-0.1-1.7,0.6-2.2c0.2-0.1,0.4-0.2,0.6-0.3c0.8-0.4,1.8-0.1,2.2,0.7
		c0.4,0.8,0.1,1.8-0.7,2.2c-0.2,0.1-0.4,0.2-0.5,0.3c-0.2,0.1-0.5,0.2-0.8,0.2C136,205.1,135.5,204.8,135.2,204.3"/>
	<path class="st0" d="M159.9,203.4c0-0.2-0.1-0.4-0.2-0.6c-0.3-0.8,0.2-1.7,1.1-2c0.9-0.2,1.7,0.2,2,1.1c0.1,0.2,0.1,0.4,0.2,0.6
		c0.2,0.9-0.3,1.7-1.1,2c-0.1,0-0.3,0.1-0.4,0.1C160.8,204.5,160.1,204.1,159.9,203.4"/>
	<path class="st0" d="M157.6,197c-0.1-0.2-0.2-0.4-0.3-0.5c-0.4-0.8,0-1.8,0.8-2.1c0.8-0.4,1.7,0,2.1,0.8c0.1,0.2,0.2,0.4,0.3,0.6
		c0.4,0.8,0,1.8-0.8,2.1c-0.2,0.1-0.4,0.1-0.7,0.1C158.5,197.9,157.9,197.6,157.6,197"/>
	<path class="st0" d="M154.3,191c-0.1-0.2-0.2-0.4-0.3-0.5c-0.5-0.7-0.3-1.7,0.4-2.2c0.7-0.5,1.7-0.3,2.2,0.5
		c0.1,0.2,0.2,0.4,0.4,0.6c0.5,0.7,0.3,1.7-0.5,2.2c-0.3,0.2-0.6,0.2-0.9,0.2C155.2,191.8,154.6,191.5,154.3,191"/>
	<path class="st0" d="M150.3,185.5c-0.1-0.2-0.3-0.3-0.4-0.5c-0.6-0.7-0.5-1.7,0.2-2.3c0.7-0.6,1.7-0.5,2.2,0.2
		c0.1,0.2,0.3,0.3,0.4,0.5c0.6,0.7,0.5,1.7-0.2,2.3c-0.3,0.3-0.7,0.4-1,0.4C151.1,186.1,150.6,185.9,150.3,185.5"/>
	<path class="st0" d="M145.6,180.5c-0.1-0.1-0.3-0.3-0.4-0.4c-0.6-0.6-0.7-1.6-0.1-2.3c0.6-0.6,1.6-0.7,2.3-0.1
		c0.2,0.2,0.3,0.3,0.5,0.5c0.6,0.6,0.7,1.6,0.1,2.3c-0.3,0.3-0.7,0.5-1.2,0.5C146.3,181,145.9,180.8,145.6,180.5"/>
	<path class="st0" d="M140.4,176c-0.2-0.1-0.3-0.3-0.5-0.4c-0.7-0.6-0.8-1.6-0.3-2.3c0.6-0.7,1.6-0.8,2.3-0.3
		c0.2,0.1,0.3,0.3,0.5,0.4c0.7,0.5,0.8,1.6,0.2,2.2c-0.3,0.4-0.8,0.6-1.2,0.6C141.1,176.4,140.7,176.3,140.4,176"/>
	<path class="st0" d="M33.7,175.8c-0.2,0-0.5,0-0.7,0c-0.9,0-1.6-0.8-1.5-1.7c0-0.9,0.8-1.6,1.7-1.5c0.2,0,0.4,0,0.6,0
		c0.9,0,1.6,0.7,1.6,1.6C35.3,175.1,34.6,175.8,33.7,175.8L33.7,175.8z"/>
	<path class="st0" d="M38.4,173.6c-0.2-0.9,0.3-1.7,1.1-2c0.2-0.1,0.4-0.1,0.6-0.2c0.9-0.2,1.7,0.3,2,1.1c0.2,0.8-0.3,1.7-1.1,2
		c-0.2,0.1-0.4,0.1-0.6,0.2c-0.1,0-0.2,0-0.3,0.1C39.3,174.8,38.6,174.3,38.4,173.6"/>
	<path class="st0" d="M26.2,174.1c-0.2-0.1-0.4-0.2-0.6-0.3c-0.8-0.4-1.1-1.4-0.6-2.2c0.4-0.8,1.4-1.1,2.2-0.6
		c0.2,0.1,0.3,0.2,0.5,0.3c0.8,0.4,1.1,1.3,0.7,2.1c-0.3,0.5-0.8,0.9-1.4,0.9C26.7,174.3,26.4,174.2,26.2,174.1"/>
	<path class="st0" d="M45.2,171.7c-0.3-0.8,0.2-1.7,1.1-2c0.2-0.1,0.4-0.1,0.6-0.2c0.8-0.2,1.7,0.2,2,1.1c0.2,0.8-0.2,1.7-1.1,2
		c-0.2,0.1-0.4,0.1-0.6,0.2c-0.1,0-0.2,0.1-0.4,0.1C46.1,172.9,45.4,172.4,45.2,171.7"/>
	<path class="st0" d="M134.8,171.9c-0.2-0.1-0.3-0.2-0.5-0.4v0c-0.7-0.5-0.9-1.5-0.4-2.2c0.5-0.7,1.5-0.9,2.2-0.4
		c0.2,0.1,0.4,0.2,0.5,0.4c0.7,0.5,0.9,1.5,0.4,2.2c-0.3,0.5-0.8,0.7-1.3,0.7C135.4,172.2,135.1,172.1,134.8,171.9"/>
	<path class="st0" d="M51.3,169.7c-0.2-0.9,0.3-1.7,1.2-1.9c0.2-0.1,0.4-0.1,0.6-0.1c0.9-0.2,1.7,0.3,1.9,1.2
		c0.2,0.9-0.3,1.7-1.2,1.9c-0.2,0.1-0.4,0.1-0.6,0.1c-0.1,0-0.2,0-0.4,0C52.2,170.9,51.5,170.4,51.3,169.7"/>
	<path class="st0" d="M58.2,168.1c-0.2-0.9,0.4-1.7,1.2-1.9c0.2,0,0.4-0.1,0.6-0.1c0.9-0.2,1.7,0.4,1.9,1.2c0.2,0.9-0.4,1.7-1.2,1.9
		c-0.2,0-0.4,0.1-0.6,0.1c-0.1,0-0.2,0-0.3,0C59,169.3,58.4,168.8,58.2,168.1"/>
	<path class="st0" d="M129,168.5c-0.2-0.1-0.4-0.2-0.6-0.3c-0.8-0.4-1.2-1.3-0.8-2.1c0.4-0.8,1.3-1.2,2.1-0.8
		c0.2,0.1,0.4,0.2,0.6,0.3c0.8,0.4,1.1,1.3,0.8,2.1c-0.3,0.6-0.9,0.9-1.5,0.9C129.5,168.6,129.2,168.6,129,168.5"/>
	<path class="st0" d="M20.2,169.3c-0.1-0.2-0.3-0.4-0.4-0.6c-0.5-0.7-0.4-1.7,0.3-2.2c0.7-0.5,1.7-0.4,2.2,0.3
		c0.1,0.2,0.2,0.3,0.4,0.4c0.6,0.7,0.5,1.7-0.2,2.3c-0.3,0.2-0.6,0.3-0.9,0.4C21,169.9,20.5,169.7,20.2,169.3"/>
	<path class="st0" d="M65.1,166.6c-0.2-0.9,0.4-1.7,1.3-1.9c0.2,0,0.4-0.1,0.6-0.1c0.9-0.2,1.7,0.4,1.9,1.3c0.2,0.9-0.4,1.7-1.3,1.9
		c-0.2,0-0.4,0.1-0.6,0.1c-0.1,0-0.2,0-0.3,0C65.9,167.9,65.2,167.4,65.1,166.6"/>
	<path class="st0" d="M72,165.3c-0.2-0.9,0.4-1.7,1.3-1.8c0.2,0,0.4-0.1,0.6-0.1c0.9-0.1,1.7,0.4,1.9,1.3c0.1,0.9-0.4,1.7-1.3,1.8
		c-0.2,0-0.4,0.1-0.6,0.1c-0.1,0-0.2,0-0.3,0C72.8,166.6,72.1,166.1,72,165.3"/>
	<path class="st0" d="M122.7,166.1c-0.2-0.1-0.4-0.1-0.6-0.2v0c-0.9-0.2-1.4-1.1-1.1-2c0.2-0.9,1.1-1.4,2-1.1
		c0.2,0.1,0.4,0.1,0.6,0.2c0.8,0.2,1.3,1.1,1.1,2c-0.2,0.7-0.8,1.2-1.5,1.2C123,166.2,122.8,166.1,122.7,166.1"/>
	<path class="st0" d="M78.9,164.1c-0.1-0.9,0.5-1.7,1.4-1.8c0.2,0,0.4-0.1,0.6-0.1c0.9-0.1,1.7,0.5,1.8,1.4c0.1,0.9-0.5,1.7-1.4,1.8
		c-0.2,0-0.4,0.1-0.6,0.1v0c-0.1,0-0.2,0-0.2,0C79.7,165.5,79.1,164.9,78.9,164.1"/>
	<path class="st0" d="M116,164.6c-0.2,0-0.4-0.1-0.6-0.1c-0.9-0.1-1.5-0.9-1.3-1.8c0.1-0.9,0.9-1.5,1.8-1.3c0.2,0,0.4,0.1,0.7,0.1
		c0.9,0.1,1.5,1,1.3,1.8c-0.1,0.8-0.8,1.4-1.6,1.4C116.2,164.7,116.1,164.7,116,164.6"/>
	<path class="st0" d="M85.9,163.2c-0.1-0.9,0.5-1.7,1.4-1.8c0.2,0,0.4-0.1,0.6-0.1c0.9-0.1,1.7,0.5,1.8,1.4c0.1,0.9-0.6,1.7-1.4,1.8
		c-0.2,0-0.4,0.1-0.6,0.1c-0.1,0-0.1,0-0.2,0C86.7,164.6,86,164,85.9,163.2"/>
	<path class="st0" d="M92.9,162.5c-0.1-0.9,0.6-1.6,1.5-1.7c0.2,0,0.4,0,0.7,0c0.9-0.1,1.6,0.6,1.7,1.5c0,0.9-0.6,1.6-1.5,1.7
		c-0.2,0-0.4,0-0.6,0c0,0-0.1,0-0.1,0C93.7,164,93,163.3,92.9,162.5"/>
	<path class="st0" d="M109.1,163.9c-0.2,0-0.4,0-0.6,0c-0.9-0.1-1.6-0.8-1.5-1.7c0-0.9,0.8-1.6,1.7-1.5c0.2,0,0.4,0,0.7,0
		c0.9,0.1,1.5,0.8,1.5,1.7c-0.1,0.8-0.8,1.5-1.6,1.5H109.1z"/>
	<path class="st0" d="M100,162.1c0-0.9,0.7-1.6,1.6-1.6c0.2,0,0.4,0,0.7,0c0.9,0,1.6,0.7,1.6,1.6c0,0.9-0.7,1.6-1.6,1.6
		c-0.2,0-0.4,0-0.6,0h0h0C100.7,163.7,100,163,100,162.1"/>
	<path class="st0" d="M16.6,162.6c-0.1-0.2-0.1-0.4-0.2-0.7c-0.2-0.8,0.2-1.7,1.1-2c0.8-0.3,1.7,0.2,2,1.1c0.1,0.2,0.1,0.4,0.2,0.6
		c0.3,0.8-0.2,1.7-1,2c-0.1,0-0.3,0.1-0.4,0.1C17.5,163.8,16.8,163.3,16.6,162.6"/>
	<path class="st0" d="M52.3,154.6c0-0.2,0-0.4,0-0.6c0-0.9,0.7-1.6,1.6-1.7c0.9,0,1.6,0.7,1.6,1.5c0,0.2,0,0.5,0,0.7h0
		c0,0.9-0.7,1.6-1.6,1.6C53.1,156.2,52.3,155.5,52.3,154.6"/>
	<path class="st0" d="M17,156.8c-0.9,0-1.6-0.7-1.6-1.6c0-0.2,0-0.5,0-0.7c0-0.9,0.8-1.6,1.7-1.5c0.9,0,1.6,0.8,1.5,1.7
		c0,0.2,0,0.4,0,0.6c0,0.8-0.7,1.5-1.5,1.6C17.1,156.8,17.1,156.8,17,156.8"/>
	<path class="st0" d="M17.9,149.9c-0.8-0.4-1.2-1.3-0.9-2.1c0.1-0.2,0.2-0.4,0.3-0.6c0.4-0.8,1.3-1.1,2.1-0.8
		c0.8,0.4,1.2,1.3,0.8,2.1c-0.1,0.2-0.2,0.4-0.2,0.5c-0.2,0.6-0.8,1-1.4,1C18.4,150,18.1,150,17.9,149.9"/>
	<path class="st0" d="M47.2,143.2c-0.1-0.1-0.3-0.3-0.4-0.4c-0.7-0.6-0.7-1.6-0.1-2.2c0.6-0.7,1.6-0.7,2.3-0.1
		c0.2,0.2,0.3,0.3,0.5,0.5c0.6,0.6,0.7,1.6,0,2.3c-0.3,0.3-0.7,0.5-1.1,0.5C48,143.7,47.5,143.5,47.2,143.2"/>
	<path class="st0" d="M21.2,143.7c-0.6-0.6-0.6-1.6,0-2.3c0.2-0.2,0.3-0.3,0.5-0.5c0.6-0.6,1.6-0.6,2.3,0.1c0.6,0.6,0.6,1.6-0.1,2.3
		c-0.1,0.1-0.3,0.3-0.4,0.4c-0.3,0.3-0.7,0.5-1.1,0.5C22,144.2,21.6,144,21.2,143.7"/>
	<path class="st0" d="M41.8,139.7c-0.2-0.1-0.4-0.1-0.5-0.2c-0.8-0.3-1.3-1.2-1-2c0.3-0.8,1.2-1.3,2-1c0.2,0.1,0.4,0.2,0.7,0.2
		c0.8,0.3,1.2,1.3,0.9,2.1c-0.2,0.6-0.8,1-1.4,1C42.3,139.9,42.1,139.8,41.8,139.7"/>
	<path class="st0" d="M26.6,139.2c-0.4-0.8,0-1.7,0.8-2.1c0.2-0.1,0.4-0.2,0.6-0.3c0.8-0.3,1.8,0.1,2.1,0.9c0.3,0.8-0.1,1.7-0.9,2.1
		c-0.2,0.1-0.4,0.2-0.5,0.2c-0.2,0.1-0.4,0.1-0.6,0.1C27.6,140.2,26.9,139.8,26.6,139.2"/>
	<path class="st0" d="M35.6,138.6c-0.2,0-0.4,0-0.6,0c-0.9,0-1.6-0.6-1.7-1.5c0-0.9,0.6-1.6,1.5-1.7c0.2,0,0.5,0,0.7,0
		c0.9,0,1.6,0.7,1.6,1.6C37.2,137.8,36.5,138.5,35.6,138.6C35.6,138.6,35.6,138.6,35.6,138.6"/>
	<path class="st0" d="M159.1,135.9c-0.9,0-1.6-0.7-1.6-1.6c0-0.9,0.7-1.6,1.6-1.6h0.6c0.9,0,1.6,0.7,1.6,1.6c0,0.9-0.7,1.6-1.6,1.6
		H159.1z"/>
	<path class="st0" d="M152.2,135.9c-0.9,0-1.6-0.7-1.6-1.6c0-0.9,0.7-1.6,1.6-1.6h0.6c0.9,0,1.6,0.7,1.6,1.6c0,0.9-0.7,1.6-1.6,1.6
		H152.2z"/>
	<path class="st0" d="M145.3,135.9c-0.9,0-1.6-0.7-1.6-1.6c0-0.9,0.7-1.6,1.6-1.6h0.6c0.9,0,1.6,0.7,1.6,1.6c0,0.9-0.7,1.6-1.6,1.6
		H145.3z"/>
	<path class="st0" d="M138.4,135.9c-0.9,0-1.6-0.7-1.6-1.6c0-0.9,0.7-1.6,1.6-1.6h0.6c0.9,0,1.6,0.7,1.6,1.6c0,0.9-0.7,1.6-1.6,1.6
		H138.4z"/>
	<path class="st0" d="M131.5,135.9c-0.9,0-1.6-0.7-1.6-1.6c0-0.9,0.7-1.6,1.6-1.6h0.6c0.9,0,1.6,0.7,1.6,1.6c0,0.9-0.7,1.6-1.6,1.6
		H131.5z"/>
	<path class="st0" d="M115.1,156.1c-0.8-0.4-1.1-1.3-0.8-2.1l0.3-0.6c0.4-0.8,1.3-1.1,2.1-0.8c0.8,0.4,1.2,1.3,0.8,2.1l-0.3,0.6
		c-0.3,0.6-0.9,0.9-1.4,0.9C115.6,156.3,115.4,156.2,115.1,156.1"/>
	<path class="st0" d="M118.1,149.8c-0.8-0.4-1.1-1.3-0.8-2.1l0.3-0.6c0.4-0.8,1.3-1.2,2.1-0.8c0.8,0.4,1.1,1.3,0.8,2.1l-0.3,0.6
		c-0.3,0.6-0.8,0.9-1.4,0.9C118.6,149.9,118.3,149.9,118.1,149.8"/>
	<path class="st0" d="M121.1,143.4c-0.8-0.4-1.2-1.3-0.8-2.1l0.3-0.6c0.4-0.8,1.3-1.1,2.1-0.8c0.8,0.4,1.1,1.3,0.8,2.1l-0.3,0.6
		c-0.3,0.6-0.8,0.9-1.4,0.9C121.5,143.5,121.3,143.5,121.1,143.4"/>
	<path class="st0" d="M124.1,137c-0.8-0.4-1.1-1.3-0.8-2.1l0.3-0.6c0.4-0.8,1.3-1.1,2.1-0.8c0.8,0.4,1.1,1.3,0.8,2.1l-0.3,0.6
		c-0.3,0.6-0.8,0.9-1.4,0.9C124.5,137.2,124.3,137.1,124.1,137"/>
	<path class="st0" d="M127.1,130.6c-0.8-0.4-1.2-1.3-0.8-2.1l0.3-0.6c0.4-0.8,1.3-1.2,2.1-0.8c0.8,0.4,1.1,1.3,0.8,2.1l-0.3,0.6
		c-0.3,0.6-0.8,0.9-1.5,0.9C127.5,130.8,127.3,130.7,127.1,130.6"/>
	<path class="st0" d="M130,124.3c-0.8-0.4-1.2-1.3-0.8-2.1l0.3-0.6c0.4-0.8,1.3-1.1,2.1-0.8c0.8,0.4,1.1,1.3,0.8,2.1l-0.3,0.6
		c-0.3,0.6-0.8,0.9-1.5,0.9C130.5,124.4,130.3,124.4,130,124.3"/>
	<path class="st0" d="M133,117.9c-0.8-0.4-1.1-1.3-0.8-2.1l0.3-0.6c0.4-0.8,1.3-1.1,2.1-0.8c0.8,0.4,1.1,1.3,0.8,2.1l-0.3,0.6
		c-0.3,0.6-0.8,0.9-1.4,0.9C133.5,118,133.2,118,133,117.9"/>
	<path class="st0" d="M136,111.5c-0.8-0.4-1.1-1.3-0.8-2.1l0.3-0.6c0.4-0.8,1.3-1.1,2.1-0.8c0.8,0.4,1.1,1.3,0.8,2.1l-0.3,0.6
		c-0.3,0.6-0.8,0.9-1.5,0.9C136.4,111.7,136.2,111.6,136,111.5"/>
	<path class="st0" d="M139,105.1c-0.8-0.4-1.1-1.3-0.8-2.1l0.3-0.6c0.4-0.8,1.3-1.1,2.1-0.8c0.8,0.4,1.2,1.3,0.8,2.1l-0.3,0.6
		c-0.3,0.6-0.8,0.9-1.5,0.9C139.4,105.3,139.2,105.2,139,105.1"/>
	<path class="st0" d="M142,98.8c-0.8-0.4-1.1-1.3-0.8-2.1l0.3-0.6c0.4-0.8,1.3-1.1,2.1-0.8c0.8,0.4,1.1,1.3,0.8,2.1l-0.3,0.6
		c-0.3,0.6-0.8,0.9-1.4,0.9C142.4,98.9,142.2,98.9,142,98.8"/>
	<path class="st0" d="M144.9,92.4c-0.8-0.4-1.1-1.3-0.8-2.1l0.3-0.6c0.4-0.8,1.3-1.1,2.1-0.8c0.8,0.4,1.1,1.3,0.8,2.1l-0.3,0.6
		c-0.3,0.6-0.8,0.9-1.4,0.9C145.4,92.5,145.2,92.5,144.9,92.4"/>
	<path class="st0" d="M174.8,155.4l-0.3-0.6c-0.4-0.8,0-1.8,0.8-2.1c0.8-0.4,1.7,0,2.1,0.8l0.3,0.6c0.4,0.8,0,1.8-0.8,2.1
		c-0.2,0.1-0.5,0.2-0.7,0.2C175.6,156.3,175.1,155.9,174.8,155.4"/>
	<path class="st0" d="M171.8,149l-0.3-0.6c-0.4-0.8,0-1.7,0.8-2.1c0.8-0.4,1.7,0,2.1,0.8l0.3,0.6c0.4,0.8,0,1.8-0.8,2.1
		c-0.2,0.1-0.4,0.1-0.7,0.1C172.7,149.9,172.1,149.6,171.8,149"/>
	<path class="st0" d="M168.8,142.6l-0.3-0.6c-0.4-0.8,0-1.8,0.8-2.1c0.8-0.4,1.8,0,2.1,0.8l0.3,0.6c0.4,0.8,0,1.8-0.8,2.1
		c-0.2,0.1-0.4,0.2-0.7,0.2C169.7,143.5,169.1,143.2,168.8,142.6"/>
	<path class="st0" d="M165.9,136.2l-0.3-0.6c-0.4-0.8,0-1.8,0.8-2.1c0.8-0.4,1.7,0,2.1,0.8l0.3,0.6c0.4,0.8,0,1.7-0.8,2.1
		c-0.2,0.1-0.5,0.1-0.7,0.1C166.7,137.2,166.1,136.8,165.9,136.2"/>
	<path class="st0" d="M162.9,129.9l-0.3-0.6c-0.4-0.8,0-1.7,0.8-2.1c0.8-0.4,1.7,0,2.1,0.8l0.3,0.6c0.4,0.8,0,1.7-0.8,2.1
		c-0.2,0.1-0.4,0.1-0.7,0.1C163.7,130.8,163.1,130.4,162.9,129.9"/>
	<path class="st0" d="M159.9,123.5l-0.3-0.6c-0.4-0.8,0-1.8,0.8-2.1c0.8-0.4,1.7,0,2.1,0.8l0.3,0.6c0.4,0.8,0,1.7-0.8,2.1
		c-0.2,0.1-0.5,0.2-0.7,0.2C160.7,124.4,160.2,124.1,159.9,123.5"/>
	<path class="st0" d="M156.9,117.1l-0.3-0.6c-0.4-0.8,0-1.7,0.8-2.1c0.8-0.4,1.8,0,2.1,0.8l0.3,0.6c0.4,0.8,0,1.8-0.8,2.1
		c-0.2,0.1-0.4,0.2-0.7,0.2C157.8,118,157.2,117.7,156.9,117.1"/>
	<path class="st0" d="M153.9,110.7l-0.3-0.6c-0.4-0.8,0-1.8,0.8-2.1c0.8-0.4,1.7,0,2.1,0.8l0.3,0.6c0.4,0.8,0,1.7-0.8,2.1
		c-0.2,0.1-0.4,0.1-0.7,0.1C154.8,111.7,154.2,111.3,153.9,110.7"/>
	<path class="st0" d="M150.9,104.4l-0.3-0.6c-0.4-0.8,0-1.8,0.8-2.1c0.8-0.4,1.8,0,2.1,0.8l0.3,0.6c0.4,0.8,0,1.8-0.8,2.1
		c-0.2,0.1-0.5,0.2-0.7,0.2C151.8,105.3,151.2,104.9,150.9,104.4"/>
	<path class="st0" d="M148,98l-0.3-0.6c-0.4-0.8,0-1.8,0.8-2.1c0.8-0.4,1.8,0,2.1,0.8l0.3,0.6c0.4,0.8,0,1.7-0.8,2.1
		c-0.2,0.1-0.5,0.2-0.7,0.2C148.8,98.9,148.2,98.6,148,98"/>
	<path class="st0" d="M52.3,141.8v-0.6c0-0.9,0.7-1.6,1.6-1.6c0.9,0,1.6,0.7,1.6,1.6v0.6c0,0.9-0.7,1.6-1.6,1.6
		C53,143.4,52.3,142.7,52.3,141.8"/>
	<path class="st0" d="M52.3,148.2v-0.6c0-0.9,0.7-1.6,1.6-1.6c0.9,0,1.6,0.7,1.6,1.6v0.6c0,0.9-0.7,1.6-1.6,1.6
		C53,149.8,52.3,149.1,52.3,148.2"/>
	<path class="st0" d="M52.3,135.4v-0.6c0-0.9,0.7-1.6,1.6-1.6c0.9,0,1.6,0.7,1.6,1.6v0.6c0,0.9-0.7,1.6-1.6,1.6
		C53,137,52.3,136.3,52.3,135.4"/>
	<path class="st0" d="M52.3,129v-0.6c0-0.9,0.7-1.6,1.6-1.6c0.9,0,1.6,0.7,1.6,1.6v0.6c0,0.9-0.7,1.6-1.6,1.6
		C53,130.6,52.3,129.9,52.3,129"/>
	<path class="st0" d="M52.3,122.6v-0.6c0-0.9,0.7-1.6,1.6-1.6c0.9,0,1.6,0.7,1.6,1.6v0.6c0,0.9-0.7,1.6-1.6,1.6
		C53,124.2,52.3,123.5,52.3,122.6"/>
	<path class="st0" d="M52.3,116.2v-0.6c0-0.9,0.7-1.6,1.6-1.6c0.9,0,1.6,0.7,1.6,1.6v0.6c0,0.9-0.7,1.6-1.6,1.6
		C53,117.8,52.3,117.1,52.3,116.2"/>
	<path class="st0" d="M52.3,109.8v-0.6c0-0.9,0.7-1.6,1.6-1.6c0.9,0,1.6,0.7,1.6,1.6v0.6c0,0.9-0.7,1.6-1.6,1.6
		C53,111.4,52.3,110.7,52.3,109.8"/>
	<path class="st0" d="M52.3,103.4v-0.6c0-0.9,0.7-1.6,1.6-1.6c0.9,0,1.6,0.7,1.6,1.6v0.6c0,0.9-0.7,1.6-1.6,1.6
		C53,105,52.3,104.3,52.3,103.4"/>
	<path class="st0" d="M52.3,97v-0.6c0-0.9,0.7-1.6,1.6-1.6c0.9,0,1.6,0.7,1.6,1.6V97c0,0.9-0.7,1.6-1.6,1.6
		C53,98.6,52.3,97.9,52.3,97"/>
	<path class="st0" d="M52.3,90.7v-0.6c0-0.9,0.7-1.6,1.6-1.6c0.9,0,1.6,0.7,1.6,1.6v0.6c0,0.9-0.7,1.6-1.6,1.6
		C53,92.3,52.3,91.5,52.3,90.7"/>
	<path class="st0" d="M98.5,91.7c-0.9,0-1.6-0.7-1.6-1.6c0-0.9,0.7-1.6,1.6-1.6h0.6c0.9,0,1.6,0.7,1.6,1.6c0,0.9-0.7,1.6-1.6,1.6
		H98.5z"/>
	<path class="st0" d="M91.9,91.7c-0.9,0-1.6-0.7-1.6-1.6c0-0.9,0.7-1.6,1.6-1.6h0.6c0.9,0,1.6,0.7,1.6,1.6c0,0.9-0.7,1.6-1.6,1.6
		H91.9z"/>
	<path class="st0" d="M85.3,91.7c-0.9,0-1.6-0.7-1.6-1.6c0-0.9,0.7-1.6,1.6-1.6h0.6c0.9,0,1.6,0.7,1.6,1.6c0,0.9-0.7,1.6-1.6,1.6
		H85.3z"/>
	<path class="st0" d="M78.8,91.7c-0.9,0-1.6-0.7-1.6-1.6c0-0.9,0.7-1.6,1.6-1.6h0.6c0.9,0,1.6,0.7,1.6,1.6c0,0.9-0.7,1.6-1.6,1.6
		H78.8z"/>
	<path class="st0" d="M72.2,91.7c-0.9,0-1.6-0.7-1.6-1.6c0-0.9,0.7-1.6,1.6-1.6h0.6c0.9,0,1.6,0.7,1.6,1.6c0,0.9-0.7,1.6-1.6,1.6
		H72.2z"/>
	<path class="st0" d="M65.6,91.7c-0.9,0-1.6-0.7-1.6-1.6c0-0.9,0.7-1.6,1.6-1.6h0.6c0.9,0,1.6,0.7,1.6,1.6c0,0.9-0.7,1.6-1.6,1.6
		H65.6z"/>
	<path class="st0" d="M59,91.7c-0.9,0-1.6-0.7-1.6-1.6c0-0.9,0.7-1.6,1.6-1.6h0.6c0.9,0,1.6,0.7,1.6,1.6c0,0.9-0.7,1.6-1.6,1.6H59z"
		/>
	<path class="st0" d="M98.3,156.2c-0.9,0-1.6-0.7-1.6-1.6c0-0.9,0.7-1.6,1.6-1.6h0.6c0.9,0,1.6,0.7,1.6,1.6c0,0.9-0.7,1.6-1.6,1.6
		H98.3z"/>
	<path class="st0" d="M91.8,156.2c-0.9,0-1.6-0.7-1.6-1.6c0-0.9,0.7-1.6,1.6-1.6h0.6c0.9,0,1.6,0.7,1.6,1.6c0,0.9-0.7,1.6-1.6,1.6
		H91.8z"/>
	<path class="st0" d="M85.2,156.2c-0.9,0-1.6-0.7-1.6-1.6c0-0.9,0.7-1.6,1.6-1.6h0.6c0.9,0,1.6,0.7,1.6,1.6c0,0.9-0.7,1.6-1.6,1.6
		H85.2z"/>
	<path class="st0" d="M78.7,156.2c-0.9,0-1.6-0.7-1.6-1.6c0-0.9,0.7-1.6,1.6-1.6h0.6c0.9,0,1.6,0.7,1.6,1.6c0,0.9-0.7,1.6-1.6,1.6
		H78.7z"/>
	<path class="st0" d="M72.1,156.2c-0.9,0-1.6-0.7-1.6-1.6c0-0.9,0.7-1.6,1.6-1.6h0.6c0.9,0,1.6,0.7,1.6,1.6c0,0.9-0.7,1.6-1.6,1.6
		H72.1z"/>
	<path class="st0" d="M65.5,156.2c-0.9,0-1.6-0.7-1.6-1.6c0-0.9,0.7-1.6,1.6-1.6h0.6c0.9,0,1.6,0.7,1.6,1.6c0,0.9-0.7,1.6-1.6,1.6
		H65.5z"/>
	<path class="st0" d="M59,156.2c-0.9,0-1.6-0.7-1.6-1.6c0-0.9,0.7-1.6,1.6-1.6h0.6c0.9,0,1.6,0.7,1.6,1.6c0,0.9-0.7,1.6-1.6,1.6H59z
		"/>
	<path class="st0" d="M86.4,124.1c-0.9,0-1.6-0.7-1.6-1.6c0-0.9,0.7-1.6,1.6-1.6h0.6c0.9,0,1.6,0.7,1.6,1.6c0,0.9-0.7,1.6-1.6,1.6
		H86.4z"/>
	<path class="st0" d="M79.6,124.1c-0.9,0-1.6-0.7-1.6-1.6c0-0.9,0.7-1.6,1.6-1.6h0.6c0.9,0,1.6,0.7,1.6,1.6c0,0.9-0.7,1.6-1.6,1.6
		H79.6z"/>
	<path class="st0" d="M72.7,124.1c-0.9,0-1.6-0.7-1.6-1.6c0-0.9,0.7-1.6,1.6-1.6h0.6c0.9,0,1.6,0.7,1.6,1.6c0,0.9-0.7,1.6-1.6,1.6
		H72.7z"/>
	<path class="st0" d="M65.8,124.1c-0.9,0-1.6-0.7-1.6-1.6c0-0.9,0.7-1.6,1.6-1.6h0.6c0.9,0,1.6,0.7,1.6,1.6c0,0.9-0.7,1.6-1.6,1.6
		H65.8z"/>
	<path class="st0" d="M58.9,124.1c-0.9,0-1.6-0.7-1.6-1.6c0-0.9,0.7-1.6,1.6-1.6h0.6c0.9,0,1.6,0.7,1.6,1.6c0,0.9-0.7,1.6-1.6,1.6
		H58.9z"/>
	<path class="st0" d="M278.1,125.6l-0.4-0.5c-0.5-0.7-0.3-1.7,0.4-2.2c0.7-0.5,1.7-0.3,2.2,0.4l0.4,0.5c0.5,0.7,0.3,1.7-0.4,2.2
		c-0.3,0.2-0.6,0.3-0.9,0.3C278.9,126.3,278.4,126.1,278.1,125.6"/>
	<path class="st0" d="M274,119.9l-0.4-0.5c-0.5-0.7-0.3-1.7,0.4-2.2c0.7-0.5,1.7-0.3,2.2,0.4l0.4,0.5c0.5,0.7,0.3,1.7-0.4,2.2
		c-0.3,0.2-0.6,0.3-0.9,0.3C274.8,120.6,274.3,120.3,274,119.9"/>
	<path class="st0" d="M269.9,114.1l-0.4-0.5c-0.5-0.7-0.3-1.7,0.4-2.2c0.7-0.5,1.7-0.3,2.2,0.4l0.4,0.5c0.5,0.7,0.3,1.7-0.4,2.2
		c-0.3,0.2-0.6,0.3-0.9,0.3C270.8,114.8,270.3,114.6,269.9,114.1"/>
	<path class="st0" d="M265.9,108.4l-0.4-0.5c-0.5-0.7-0.3-1.7,0.4-2.2c0.7-0.5,1.7-0.3,2.2,0.4l0.4,0.5c0.5,0.7,0.3,1.7-0.4,2.2
		c-0.3,0.2-0.6,0.3-0.9,0.3C266.7,109.1,266.2,108.8,265.9,108.4"/>
	<path class="st0" d="M261.8,102.6l-0.4-0.5c-0.5-0.7-0.3-1.7,0.4-2.2c0.7-0.5,1.7-0.3,2.2,0.4l0.4,0.5c0.5,0.7,0.3,1.7-0.4,2.2
		c-0.3,0.2-0.6,0.3-0.9,0.3C262.6,103.3,262.1,103.1,261.8,102.6"/>
	<path class="st0" d="M257.8,96.9l-0.4-0.5c-0.5-0.7-0.3-1.7,0.4-2.2c0.7-0.5,1.7-0.3,2.2,0.4l0.4,0.5c0.5,0.7,0.3,1.7-0.4,2.2
		c-0.3,0.2-0.6,0.3-0.9,0.3C258.6,97.6,258.1,97.3,257.8,96.9"/>
	<path class="st0" d="M253.7,91.1l-0.4-0.5c-0.5-0.7-0.3-1.7,0.4-2.2c0.7-0.5,1.7-0.3,2.2,0.4l0.4,0.5c0.5,0.7,0.3,1.7-0.4,2.2
		c-0.3,0.2-0.6,0.3-0.9,0.3C254.5,91.8,254,91.6,253.7,91.1"/>
	<path class="st0" d="M284.4,126.2c-0.7-0.5-0.9-1.5-0.4-2.2l0.4-0.5c0.5-0.7,1.5-0.9,2.2-0.4c0.7,0.5,0.9,1.5,0.4,2.2l-0.4,0.5
		c-0.3,0.4-0.8,0.7-1.3,0.7C285,126.5,284.7,126.4,284.4,126.2"/>
	<path class="st0" d="M288.5,120.4c-0.7-0.5-0.9-1.5-0.4-2.2l0.4-0.5c0.5-0.7,1.5-0.9,2.2-0.4c0.7,0.5,0.9,1.5,0.4,2.2l-0.4,0.5
		c-0.3,0.4-0.8,0.7-1.3,0.7C289.1,120.7,288.7,120.6,288.5,120.4"/>
	<path class="st0" d="M292.5,114.6c-0.7-0.5-0.9-1.5-0.4-2.2l0.4-0.5c0.5-0.7,1.5-0.9,2.2-0.4c0.7,0.5,0.9,1.5,0.4,2.2l-0.4,0.5
		c-0.3,0.4-0.8,0.7-1.3,0.7C293.1,114.9,292.8,114.8,292.5,114.6"/>
	<path class="st0" d="M296.5,108.9c-0.7-0.5-0.9-1.5-0.4-2.2l0.4-0.5c0.5-0.7,1.5-0.9,2.2-0.4c0.7,0.5,0.9,1.5,0.4,2.2l-0.4,0.5
		c-0.3,0.4-0.8,0.7-1.3,0.7C297.1,109.1,296.8,109.1,296.5,108.9"/>
	<path class="st0" d="M300.5,103.1c-0.7-0.5-0.9-1.5-0.4-2.2l0.4-0.5c0.5-0.7,1.5-0.9,2.2-0.4c0.7,0.5,0.9,1.5,0.4,2.2l-0.4,0.5
		c-0.3,0.5-0.8,0.7-1.3,0.7C301.1,103.4,300.8,103.3,300.5,103.1"/>
	<path class="st0" d="M304.5,97.3c-0.7-0.5-0.9-1.5-0.4-2.2l0.4-0.5c0.5-0.7,1.5-0.9,2.2-0.4c0.7,0.5,0.9,1.5,0.4,2.2l-0.4,0.5
		c-0.3,0.4-0.8,0.7-1.3,0.7C305.1,97.6,304.8,97.5,304.5,97.3"/>
	<path class="st0" d="M308.6,91.5c-0.7-0.5-0.9-1.5-0.4-2.2l0.4-0.5c0.5-0.7,1.5-0.9,2.2-0.4c0.7,0.5,0.9,1.5,0.4,2.2l-0.4,0.5
		c-0.3,0.4-0.8,0.7-1.3,0.7C309.2,91.8,308.8,91.7,308.6,91.5"/>
	<path class="st0" d="M280.6,137.7v-0.6c0-0.9,0.7-1.6,1.6-1.6c0.9,0,1.6,0.7,1.6,1.6v0.6c0,0.9-0.7,1.6-1.6,1.6
		C281.4,139.3,280.6,138.6,280.6,137.7"/>
	<path class="st0" d="M280.6,130.6V130c0-0.9,0.7-1.6,1.6-1.6c0.9,0,1.6,0.7,1.6,1.6v0.6c0,0.9-0.7,1.6-1.6,1.6
		C281.4,132.2,280.6,131.5,280.6,130.6"/>
	<path class="st0" d="M280.6,144.8v-0.7c0-0.9,0.7-1.6,1.6-1.6c0.9,0,1.6,0.7,1.6,1.6v0.7c0,0.9-0.7,1.6-1.6,1.6
		C281.4,146.4,280.6,145.7,280.6,144.8"/>
	<path class="st0" d="M215.6,157.1c-0.2,0-0.4,0-0.7-0.1c-0.9-0.1-1.5-0.9-1.4-1.8c0.1-0.9,0.9-1.5,1.8-1.4c0.2,0,0.4,0,0.6,0.1
		c0.9,0.1,1.5,0.9,1.5,1.7c-0.1,0.8-0.8,1.5-1.6,1.5C215.7,157.1,215.6,157.1,215.6,157.1"/>
	<path class="st0" d="M220.5,155.6c-0.1-0.9,0.5-1.7,1.4-1.8c0.2,0,0.4,0,0.6-0.1c0.9-0.1,1.7,0.5,1.8,1.4c0.1,0.9-0.5,1.7-1.4,1.8
		c-0.2,0-0.4,0.1-0.7,0.1c-0.1,0-0.1,0-0.2,0C221.3,157.1,220.6,156.5,220.5,155.6"/>
	<path class="st0" d="M208.4,155.8c-0.2-0.1-0.4-0.1-0.6-0.2c-0.8-0.2-1.3-1.1-1.1-2c0.3-0.8,1.1-1.3,2-1.1c0.2,0.1,0.4,0.1,0.6,0.2
		c0.9,0.2,1.3,1.1,1.1,2c-0.2,0.7-0.8,1.2-1.5,1.2C208.7,155.8,208.5,155.8,208.4,155.8"/>
	<path class="st0" d="M227.5,154.4c-0.3-0.8,0.1-1.8,0.9-2.1c0.2-0.1,0.4-0.2,0.6-0.2c0.8-0.3,1.8,0.1,2.1,0.9
		c0.3,0.8-0.1,1.7-0.9,2.1c-0.2,0.1-0.4,0.2-0.6,0.2c-0.2,0.1-0.4,0.1-0.6,0.1C228.3,155.4,227.7,155,227.5,154.4"/>
	<path class="st0" d="M201.6,153.2c-0.2-0.1-0.4-0.2-0.6-0.3c-0.8-0.4-1.1-1.3-0.8-2.1c0.4-0.8,1.3-1.1,2.1-0.8
		c0.2,0.1,0.4,0.2,0.6,0.3h0c0.8,0.4,1.2,1.3,0.8,2.1c-0.3,0.6-0.9,0.9-1.5,0.9C202,153.4,201.8,153.3,201.6,153.2"/>
	<path class="st0" d="M233.9,151.5c-0.6-0.6-0.6-1.6,0-2.3c0.1-0.1,0.3-0.3,0.4-0.4c0.6-0.7,1.6-0.7,2.3-0.1
		c0.7,0.6,0.7,1.6,0.1,2.3c-0.2,0.2-0.3,0.4-0.5,0.5c-0.3,0.3-0.7,0.4-1.1,0.4C234.6,152,234.2,151.9,233.9,151.5"/>
	<path class="st0" d="M195.2,149.9c-0.2-0.1-0.4-0.2-0.6-0.3c-0.7-0.5-1-1.4-0.5-2.2c0.5-0.8,1.5-1,2.2-0.5c0.2,0.1,0.4,0.2,0.5,0.3
		c0.8,0.5,1,1.4,0.5,2.2c-0.3,0.5-0.8,0.8-1.4,0.8C195.7,150.1,195.5,150,195.2,149.9"/>
	<path class="st0" d="M238.2,146c-0.8-0.3-1.2-1.2-0.9-2.1c0.1-0.2,0.1-0.4,0.2-0.6c0.3-0.8,1.2-1.3,2-1c0.8,0.3,1.3,1.2,1,2
		c-0.1,0.2-0.1,0.4-0.2,0.7c-0.2,0.6-0.9,1-1.5,1C238.6,146.1,238.4,146.1,238.2,146"/>
	<path class="st0" d="M238.4,137.7c0-0.2,0-0.4,0-0.6c-0.1-0.9,0.6-1.7,1.5-1.7c0.9-0.1,1.7,0.6,1.7,1.5c0,0.2,0,0.5,0,0.7
		c0,0.9-0.7,1.6-1.5,1.7H240C239.1,139.2,238.4,138.5,238.4,137.7"/>
	<path class="st0" d="M236.5,131.9c-0.1-0.2-0.2-0.3-0.3-0.4v0c-0.5-0.7-0.4-1.7,0.3-2.2c0.7-0.5,1.7-0.4,2.2,0.3
		c0.1,0.2,0.3,0.4,0.4,0.6c0.5,0.7,0.3,1.7-0.4,2.2c-0.3,0.2-0.6,0.3-0.9,0.3C237.3,132.6,236.8,132.4,236.5,131.9"/>
	<path class="st0" d="M231.7,128.2c-0.2-0.1-0.4-0.2-0.5-0.3c-0.8-0.4-1.1-1.3-0.8-2.1c0.4-0.8,1.3-1.1,2.1-0.8
		c0.2,0.1,0.4,0.2,0.6,0.3c0.8,0.4,1.1,1.4,0.7,2.1c-0.3,0.6-0.8,0.9-1.4,0.9C232.1,128.3,231.9,128.3,231.7,128.2"/>
	<path class="st0" d="M225.3,125.7c-0.2-0.1-0.4-0.1-0.6-0.2h0c-0.8-0.3-1.3-1.2-1-2c0.3-0.8,1.2-1.3,2-1.1c0.2,0.1,0.4,0.1,0.6,0.2
		c0.8,0.3,1.3,1.2,1,2c-0.2,0.7-0.8,1.1-1.5,1.1C225.6,125.8,225.5,125.8,225.3,125.7"/>
	<path class="st0" d="M218.6,123.8c-0.2-0.1-0.4-0.1-0.6-0.2c-0.9-0.2-1.4-1.1-1.2-1.9c0.2-0.9,1.1-1.4,1.9-1.2
		c0.2,0.1,0.4,0.1,0.6,0.2c0.9,0.2,1.4,1.1,1.2,1.9c-0.2,0.7-0.8,1.2-1.6,1.2C218.9,123.9,218.8,123.9,218.6,123.8"/>
	<path class="st0" d="M211.8,122.2c-0.2-0.1-0.4-0.1-0.6-0.2c-0.9-0.2-1.4-1.1-1.2-1.9c0.2-0.9,1.1-1.4,1.9-1.2
		c0.2,0.1,0.4,0.1,0.6,0.2c0.8,0.2,1.4,1.1,1.2,1.9c-0.2,0.7-0.8,1.2-1.6,1.2C212.1,122.2,211.9,122.2,211.8,122.2"/>
	<path class="st0" d="M204.9,120.4c-0.2-0.1-0.4-0.1-0.6-0.2c-0.8-0.3-1.3-1.2-1-2c0.3-0.8,1.2-1.3,2-1c0.2,0.1,0.4,0.1,0.6,0.2
		c0.8,0.3,1.3,1.1,1.1,2c-0.2,0.7-0.8,1.1-1.5,1.1C205.2,120.4,205,120.4,204.9,120.4"/>
	<path class="st0" d="M198.1,116.8c-0.2-0.2-0.3-0.3-0.5-0.5c-0.6-0.6-0.6-1.6,0-2.3c0.6-0.6,1.6-0.6,2.3,0c0.1,0.1,0.3,0.3,0.4,0.4
		c0.7,0.6,0.7,1.6,0.1,2.2c-0.3,0.4-0.8,0.5-1.2,0.5C198.8,117.2,198.4,117,198.1,116.8"/>
	<path class="st0" d="M193.7,110.4c-0.1-0.2-0.2-0.4-0.3-0.7c-0.3-0.8,0.2-1.7,1-2c0.8-0.3,1.7,0.2,2,1c0.1,0.2,0.1,0.4,0.2,0.5
		c0.3,0.8-0.1,1.7-0.9,2.1c-0.2,0.1-0.4,0.1-0.6,0.1C194.6,111.4,194,111.1,193.7,110.4"/>
	<path class="st0" d="M194.8,104.5c-0.8-0.3-1.3-1.2-1-2c0.1-0.2,0.1-0.4,0.2-0.7c0.3-0.8,1.2-1.3,2-1c0.8,0.3,1.3,1.2,1,2
		c-0.1,0.2-0.1,0.4-0.2,0.6c-0.2,0.7-0.9,1.1-1.5,1.1C195.1,104.6,195,104.6,194.8,104.5"/>
	<path class="st0" d="M235.8,98.2L235.8,98.2c0-0.1-0.1-0.1-0.1-0.3c-0.4-0.8-0.2-1.7,0.6-2.2c0.8-0.4,1.7-0.2,2.2,0.6
		c0.3,0.5,0.4,0.8,0.4,0.9v0c0.2,0.8-0.2,1.7-1.1,2c-0.1,0-0.3,0.1-0.4,0.1C236.7,99.3,236,98.8,235.8,98.2"/>
	<path class="st0" d="M197.5,98.1c-0.7-0.6-0.8-1.6-0.2-2.3c0.1-0.2,0.3-0.4,0.5-0.5c0.6-0.7,1.6-0.7,2.3-0.1
		c0.7,0.6,0.7,1.6,0.1,2.3c-0.1,0.1-0.3,0.3-0.4,0.4c-0.3,0.4-0.8,0.6-1.2,0.6C198.2,98.4,197.8,98.3,197.5,98.1"/>
	<path class="st0" d="M231.5,94.6c-0.2-0.1-0.4-0.2-0.5-0.2c-0.8-0.3-1.2-1.3-0.8-2.1c0.3-0.8,1.3-1.2,2.1-0.8
		c0.2,0.1,0.4,0.2,0.6,0.3c0.8,0.4,1.1,1.3,0.8,2.1c-0.3,0.6-0.8,0.9-1.4,0.9C231.9,94.7,231.7,94.7,231.5,94.6"/>
	<path class="st0" d="M202.6,93.3c-0.4-0.8-0.1-1.8,0.7-2.1c0.2-0.1,0.4-0.2,0.6-0.3h0c0.8-0.4,1.8,0,2.1,0.8c0.4,0.8,0,1.7-0.8,2.1
		c-0.2,0.1-0.4,0.2-0.5,0.2c-0.2,0.1-0.5,0.2-0.7,0.2C203.5,94.2,202.9,93.8,202.6,93.3"/>
	<path class="st0" d="M225.2,92.7c-0.2,0-0.4-0.1-0.6-0.1c-0.9-0.1-1.5-1-1.3-1.8c0.1-0.9,1-1.5,1.8-1.3c0.2,0,0.4,0.1,0.7,0.1
		c0.9,0.2,1.4,1,1.3,1.9c-0.1,0.8-0.8,1.3-1.6,1.3C225.4,92.7,225.3,92.7,225.2,92.7"/>
	<path class="st0" d="M209.2,90.8c-0.1-0.9,0.5-1.7,1.4-1.8c0.2,0,0.4-0.1,0.7-0.1v0c0.9-0.1,1.7,0.5,1.8,1.4
		c0.1,0.9-0.5,1.7-1.4,1.8c-0.2,0-0.4,0.1-0.6,0.1c-0.1,0-0.2,0-0.2,0C210,92.2,209.3,91.6,209.2,90.8"/>
	<path class="st0" d="M218.4,92c-0.2,0-0.4,0-0.6,0c-0.9,0-1.6-0.8-1.5-1.7c0-0.9,0.8-1.6,1.7-1.5c0.2,0,0.4,0,0.6,0
		c0.9,0,1.6,0.8,1.5,1.7C220,91.3,219.3,92,218.4,92L218.4,92z"/>
	<path class="st0" d="M179.9,202.7c0-0.9,0.6-1.6,1.5-1.7c0.2,0,0.4,0,0.6,0c0.9-0.1,1.6,0.6,1.7,1.5c0.1,0.9-0.6,1.7-1.5,1.7
		c-0.2,0-0.5,0-0.7,0h-0.1C180.7,204.2,180,203.6,179.9,202.7"/>
	<path class="st0" d="M174.8,203.4c-0.2-0.1-0.4-0.1-0.7-0.2c-0.8-0.3-1.3-1.2-1-2c0.3-0.8,1.2-1.3,2-1c0.2,0.1,0.4,0.1,0.6,0.2
		c0.8,0.2,1.3,1.1,1.1,2c-0.2,0.7-0.8,1.2-1.5,1.2C175.1,203.5,174.9,203.5,174.8,203.4"/>
	<path class="st0" d="M186.9,201.6c-0.4-0.8,0-1.8,0.8-2.1c0.2-0.1,0.4-0.2,0.5-0.3v0c0.8-0.4,1.8-0.1,2.1,0.7
		c0.4,0.8,0.1,1.8-0.7,2.1c-0.2,0.1-0.4,0.2-0.6,0.3c-0.2,0.1-0.4,0.1-0.7,0.1C187.7,202.6,187.1,202.2,186.9,201.6"/>
	<path class="st0" d="M168,200c-0.2-0.1-0.4-0.3-0.5-0.4c-0.7-0.6-0.8-1.6-0.2-2.3c0.6-0.7,1.6-0.8,2.2-0.2c0.2,0.1,0.3,0.2,0.5,0.4
		c0.7,0.5,0.8,1.5,0.3,2.2c-0.3,0.4-0.8,0.6-1.3,0.6C168.6,200.4,168.3,200.3,168,200"/>
	<path class="st0" d="M192.9,198.1c-0.6-0.6-0.6-1.6,0-2.3c0.1-0.1,0.3-0.3,0.4-0.4l0,0c0.6-0.7,1.6-0.7,2.3-0.1
		c0.7,0.6,0.7,1.6,0.1,2.3c-0.2,0.2-0.3,0.3-0.5,0.5c-0.3,0.3-0.7,0.5-1.1,0.5C193.7,198.5,193.3,198.4,192.9,198.1"/>
	<path class="st0" d="M162.9,194.4c-0.1-0.2-0.2-0.4-0.3-0.6c-0.4-0.8-0.2-1.7,0.6-2.2c0.8-0.4,1.8-0.2,2.2,0.6
		c0.1,0.2,0.2,0.3,0.3,0.5c0.5,0.8,0.2,1.7-0.5,2.2c-0.3,0.2-0.5,0.2-0.8,0.2C163.7,195.2,163.2,194.9,162.9,194.4"/>
	<path class="st0" d="M197.3,192.6c-0.8-0.3-1.2-1.3-0.8-2.1c0.1-0.2,0.2-0.4,0.2-0.5h0c0.3-0.8,1.2-1.2,2.1-0.9
		c0.8,0.3,1.2,1.2,0.9,2.1c-0.1,0.2-0.2,0.4-0.3,0.6c-0.3,0.6-0.9,1-1.5,1C197.7,192.7,197.5,192.7,197.3,192.6"/>
	<path class="st0" d="M160.2,187.3c0-0.2-0.1-0.5-0.1-0.7c-0.1-0.9,0.5-1.7,1.4-1.8c0.9-0.1,1.7,0.5,1.8,1.4c0,0.2,0.1,0.4,0.1,0.6
		c0.2,0.9-0.4,1.7-1.3,1.9c-0.1,0-0.2,0-0.3,0C161,188.6,160.4,188.1,160.2,187.3"/>
	<path class="st0" d="M199.4,185.9c-0.9,0-1.6-0.8-1.5-1.6c0-0.2,0-0.4,0-0.6h0c0-0.9,0.7-1.6,1.6-1.6c0.9,0,1.6,0.7,1.6,1.6
		c0,0.2,0,0.5,0,0.7C201,185.2,200.3,185.9,199.4,185.9L199.4,185.9z"/>
	<path class="st0" d="M161.5,181.6c-0.9-0.2-1.4-1-1.3-1.9c0-0.2,0.1-0.5,0.1-0.7c0.2-0.9,1.1-1.4,1.9-1.2c0.9,0.2,1.4,1.1,1.2,1.9
		c0,0.2-0.1,0.4-0.1,0.6c-0.1,0.8-0.8,1.3-1.6,1.3C161.7,181.6,161.6,181.6,161.5,181.6"/>
	<path class="st0" d="M197,178.1c-0.1-0.2-0.1-0.4-0.2-0.5c-0.3-0.8,0.1-1.7,0.9-2.1c0.8-0.3,1.7,0.1,2.1,0.9
		c0.1,0.2,0.2,0.4,0.2,0.7c0.3,0.8-0.2,1.7-1,2c-0.2,0.1-0.3,0.1-0.5,0.1C197.8,179.2,197.2,178.8,197,178.1"/>
	<path class="st0" d="M163.6,174.9c-0.7-0.5-1-1.5-0.5-2.2c0.1-0.2,0.3-0.4,0.4-0.6c0.5-0.7,1.5-0.9,2.2-0.4
		c0.7,0.5,0.9,1.5,0.4,2.2c-0.1,0.2-0.2,0.3-0.3,0.5c-0.3,0.5-0.8,0.7-1.4,0.7C164.1,175.1,163.8,175,163.6,174.9"/>
	<path class="st0" d="M193.9,172.5c-0.1-0.2-0.3-0.3-0.4-0.4c-0.6-0.7-0.5-1.7,0.1-2.3c0.7-0.6,1.7-0.5,2.3,0.1
		c0.2,0.2,0.3,0.3,0.5,0.5c0.6,0.7,0.5,1.7-0.2,2.2c-0.3,0.2-0.7,0.4-1,0.4C194.6,173.1,194.2,172.9,193.9,172.5"/>
	<path class="st0" d="M167.9,169.4c-0.5-0.7-0.4-1.7,0.3-2.2c0.2-0.1,0.4-0.3,0.6-0.4c0.7-0.5,1.7-0.3,2.2,0.4
		c0.5,0.7,0.3,1.7-0.4,2.2c-0.2,0.1-0.3,0.2-0.5,0.3h0c-0.3,0.2-0.6,0.3-1,0.3C168.7,170,168.2,169.8,167.9,169.4"/>
	<path class="st0" d="M188.9,168.4c-0.2-0.1-0.3-0.2-0.5-0.3c-0.8-0.4-1.1-1.4-0.7-2.2c0.4-0.8,1.4-1.1,2.2-0.7
		c0.2,0.1,0.4,0.2,0.6,0.3c0.8,0.4,1,1.4,0.6,2.2c-0.3,0.5-0.8,0.8-1.4,0.8C189.4,168.7,189.2,168.6,188.9,168.4"/>
	<path class="st0" d="M173.9,165.8c-0.2-0.9,0.3-1.7,1.1-2c0.2-0.1,0.4-0.1,0.7-0.2c0.9-0.2,1.7,0.3,1.9,1.2
		c0.2,0.9-0.3,1.7-1.2,1.9c-0.2,0-0.4,0.1-0.6,0.1c-0.1,0-0.3,0.1-0.4,0.1C174.8,166.9,174.1,166.5,173.9,165.8"/>
	<path class="st0" d="M182.9,166.4c-0.2,0-0.4,0-0.6-0.1c-0.9-0.1-1.5-0.9-1.4-1.8c0.1-0.9,0.9-1.5,1.8-1.4c0.2,0,0.5,0.1,0.7,0.1
		c0.9,0.1,1.5,0.9,1.4,1.8c-0.1,0.8-0.8,1.4-1.6,1.4C183,166.4,182.9,166.4,182.9,166.4"/>
	<path class="st0" d="M95.1,261.6h6c1.6,0,2.9,0.5,3.7,1.3c0.6,0.6,0.9,1.3,0.9,2.2v0c0,1.8-1.1,2.8-2.2,3.3c1.7,0.5,3,1.5,3,3.4v0
		c0,2.4-2,3.8-5.1,3.8h-6.3V261.6z M100.8,267.9c1.9,0,3.2-0.9,3.2-2.5v0c0-1.4-1.1-2.3-3.1-2.3h-4.3v4.9H100.8z M101.4,274.2
		c2.1,0,3.5-0.9,3.5-2.5v0c0-1.5-1.3-2.4-3.7-2.4h-4.4v5H101.4z"/>
	<g>
		<line class="st0" x1="112.6" y1="275.7" x2="112.6" y2="261.6"/>
		<rect x="111.8" y="261.6" class="st0" width="1.6" height="14.1"/>
	</g>
	<path class="st0" d="M118.6,273.6l1-1.2c1.5,1.3,2.9,2,4.8,2c1.9,0,3.1-1,3.1-2.4v0c0-1.3-0.7-2.1-3.7-2.7
		c-3.2-0.7-4.7-1.8-4.7-4.1v0c0-2.2,2-3.8,4.6-3.8c2.1,0,3.5,0.6,4.9,1.7l-0.9,1.2c-1.3-1.1-2.6-1.5-4.1-1.5c-1.8,0-3,1-3,2.3v0
		c0,1.3,0.7,2.1,3.8,2.7c3.1,0.7,4.6,1.8,4.6,4v0c0,2.4-2,4-4.8,4C122.1,275.9,120.2,275.1,118.6,273.6"/>
	<polygon class="st0" points="137.8,263.1 133.1,263.1 133.1,261.6 144.1,261.6 144.1,263.1 139.4,263.1 139.4,275.7 137.8,275.7 	
		"/>
	<path class="st0" d="M149.1,261.6h6c1.7,0,3.1,0.5,4,1.4c0.7,0.7,1.1,1.7,1.1,2.8v0c0,2.3-1.6,3.7-3.8,4.1l4.3,5.7h-1.9l-4.1-5.5h0
		h-4v5.5h-1.6V261.6z M155,268.8c2.1,0,3.6-1.1,3.6-2.9v0c0-1.7-1.3-2.8-3.6-2.8h-4.3v5.7H155z"/>
	<path class="st0" d="M165.1,268.7L165.1,268.7c0-3.9,2.9-7.3,7.2-7.3c4.3,0,7.2,3.4,7.2,7.2c0,0,0,0,0,0c0,3.9-2.9,7.3-7.2,7.3
		C167.9,275.9,165.1,272.6,165.1,268.7 M177.8,268.7L177.8,268.7c0-3.2-2.3-5.9-5.6-5.9c-3.2,0-5.5,2.6-5.5,5.8v0
		c0,3.2,2.3,5.8,5.6,5.8C175.5,274.4,177.8,271.9,177.8,268.7"/>
	<path class="st0" d="M200.8,273.7c-1.3,1.4-2.8,2.2-4.6,2.2c-2.5,0-4.4-1.6-4.4-3.9v0c0-1.9,1.2-3.2,3.4-4.1c-1-1.1-1.4-2-1.4-3.1
		v0c0-1.8,1.5-3.3,3.7-3.3c2,0,3.4,1.4,3.4,3.2v0c0,1.8-1.3,2.9-3.3,3.7l3.2,3.3c0.6-0.9,1.2-2,1.7-3.1l1.3,0.6
		c-0.6,1.3-1.3,2.5-2,3.5l2.5,2.5L203,276L200.8,273.7z M199.8,272.7l-3.8-3.9c-1.9,0.7-2.7,1.8-2.7,3v0c0,1.5,1.2,2.7,2.9,2.7
		C197.6,274.5,198.8,273.8,199.8,272.7 M199.4,264.6L199.4,264.6c0-1.2-0.8-2-2-2c-1.3,0-2.1,0.9-2.1,2v0c0,0.8,0.3,1.4,1.4,2.6
		C198.5,266.7,199.4,265.9,199.4,264.6"/>
	<path class="st0" d="M216.9,261.6h6c1.6,0,2.9,0.5,3.7,1.3c0.6,0.6,0.9,1.3,0.9,2.2v0c0,1.8-1.1,2.8-2.2,3.3c1.7,0.5,3,1.5,3,3.4v0
		c0,2.4-2,3.8-5.1,3.8h-6.3V261.6z M222.7,267.9c1.9,0,3.2-0.9,3.2-2.5v0c0-1.4-1.1-2.3-3.1-2.3h-4.3v4.9H222.7z M223.2,274.2
		c2.1,0,3.5-0.9,3.5-2.5v0c0-1.5-1.3-2.4-3.7-2.4h-4.4v5H223.2z"/>
	<path class="st0" d="M238.7,261.5h1.5l6.4,14.2h-1.7l-1.6-3.7h-7.7l-1.7,3.7h-1.6L238.7,261.5z M242.6,270.5l-3.2-7.2l-3.2,7.2
		H242.6z"/>
	<path class="st0" d="M251.4,261.6h6c1.7,0,3.1,0.5,4,1.4c0.7,0.7,1.1,1.7,1.1,2.8v0c0,2.3-1.6,3.7-3.8,4.1l4.3,5.7h-2l-4.1-5.5h0
		h-4v5.5h-1.6V261.6z M257.3,268.8c2.1,0,3.6-1.1,3.6-2.9v0c0-1.7-1.3-2.8-3.6-2.8H253v5.7H257.3z"/>
</g>
</svg>
