<?xml version="1.0" standalone="no"?>
<!DOCTYPE svg PUBLIC "-//W3C//DTD SVG 20010904//EN"
 "http://www.w3.org/TR/2001/REC-SVG-20010904/DTD/svg10.dtd">
<svg version="1.0" xmlns="http://www.w3.org/2000/svg"
 width="200.000000pt" height="200.000000pt" viewBox="0 0 200.000000 200.000000"
 preserveAspectRatio="xMidYMid meet">
<metadata>
Created by potrace 1.15, written by Peter Selinger 2001-2017
</metadata>
<g transform="translate(0.000000,200.000000) scale(0.100000,-0.100000)"
fill="#000000" stroke="none">
<path d="M813 1646 c-106 -26 -210 -93 -286 -186 -133 -161 -155 -394 -55
-583 38 -70 138 -174 201 -207 l47 -25 107 107 108 108 -105 106 c-61 61 -124
114 -150 127 l-45 22 -3 73 c-3 69 -4 72 -27 72 -16 0 -25 6 -25 15 0 12 13
15 60 15 47 0 60 -3 60 -15 0 -8 -9 -15 -20 -15 -18 0 -20 -7 -20 -63 0 -59 2
-65 25 -75 14 -7 31 -12 37 -12 8 0 9 61 3 209 -3 116 -4 218 -1 228 5 17 21
18 233 16 l228 -2 -4 -227 -3 -227 28 7 c47 12 54 24 54 87 0 56 -1 59 -25 59
-16 0 -25 6 -25 15 0 13 11 15 62 13 38 -2 63 -8 66 -15 2 -8 -6 -13 -22 -13
-25 0 -26 -2 -26 -63 0 -71 -9 -85 -70 -111 -19 -8 -82 -62 -140 -120 l-105
-106 102 -102 101 -101 33 13 c53 22 170 147 206 220 175 356 -85 774 -478
769 -41 0 -97 -6 -126 -13z"/>
<path d="M760 1220 l0 -119 38 -8 c47 -9 288 -9 325 0 l27 7 0 120 0 120 -195
0 -195 0 0 -120z"/>
<path d="M860 976 l95 -96 92 92 c51 51 91 93 90 94 -1 0 -38 -3 -82 -8 -75
-8 -225 -3 -270 9 -11 3 22 -37 75 -91z"/>
<path d="M846 731 c-98 -98 -99 -100 -72 -107 l27 -6 -30 -19 c-29 -18 -31
-22 -31 -83 0 -42 -4 -66 -12 -70 -10 -5 -10 -7 0 -12 6 -3 12 -19 12 -35 0
-29 1 -29 55 -29 54 0 55 0 55 30 0 20 5 30 15 30 8 0 15 5 15 10 0 6 -7 10
-15 10 -12 0 -15 13 -15 58 0 46 4 61 21 75 11 10 22 17 23 15 1 -2 6 -16 12
-33 8 -26 14 -30 44 -30 31 0 36 4 45 33 5 17 15 32 22 32 10 0 13 -28 13
-115 l0 -115 55 0 55 0 0 36 c0 21 4 33 10 29 6 -3 10 -19 10 -36 0 -19 5 -29
15 -29 20 0 20 68 0 90 -13 14 -12 17 5 28 19 12 20 9 20 -53 l0 -65 60 0 60
0 0 75 0 75 -80 -1 c-47 -1 -83 -6 -88 -13 -4 -6 -9 14 -12 44 -5 51 -7 55
-35 61 -16 4 -22 7 -12 8 10 0 28 6 39 12 19 10 14 17 -73 105 -51 52 -98 94
-104 94 -6 0 -55 -45 -109 -99z"/>
<path d="M350 475 l0 -105 60 0 c47 0 60 3 60 15 0 22 18 18 25 -5 6 -20 25
-26 38 -13 4 3 0 17 -8 29 -11 17 -12 30 -5 49 16 41 12 80 -11 109 -19 24
-27 26 -90 26 l-69 0 0 -105z"/>
<path d="M1453 518 c-17 -8 -24 -23 -29 -61 -5 -37 -12 -51 -25 -54 -31 -9
-21 -32 16 -39 19 -3 51 -3 70 0 39 8 55 33 55 87 0 17 6 32 15 35 8 4 15 12
15 19 0 24 -76 33 -117 13z"/>
<path d="M563 513 c-7 -2 -13 -12 -13 -20 0 -10 6 -13 16 -9 31 12 36 -7 5
-20 -24 -10 -31 -19 -31 -42 0 -43 16 -52 97 -52 l73 0 0 59 c0 76 -14 91 -83
90 -29 0 -58 -3 -64 -6z"/>
<path d="M890 445 l0 -75 60 0 60 0 0 75 0 75 -60 0 -60 0 0 -75z"/>
</g>
</svg>
